<svg width="2560" height="1000" viewBox="0 0 2560 1000" fill="none" xmlns="http://www.w3.org/2000/svg">
<path d="M0 0H2560V1000H0V0Z" fill="black"/>
<path d="M1613.17 542.453V506.112H1647.44V542.453H1613.17Z" fill="#6366f1"/>
<path d="M982.56 545.136C968.448 545.136 956.1 541.944 945.516 535.56C934.932 529.176 926.7 520.524 920.82 509.604C914.94 498.684 912 486.588 912 473.316C912 459.54 914.94 447.36 920.82 436.776C926.868 426.024 935.016 417.54 945.264 411.324C955.68 405.108 967.272 402 980.04 402C990.792 402 1000.2 403.764 1008.26 407.292C1016.5 410.82 1023.47 415.692 1029.18 421.908C1034.89 428.124 1039.26 435.264 1042.28 443.328C1045.31 451.224 1046.82 459.792 1046.82 469.032C1046.82 471.384 1046.65 473.82 1046.32 476.34C1046.15 478.86 1045.73 481.044 1045.06 482.892H939.216V457.692H1026.41L1010.78 469.536C1012.3 461.808 1011.88 454.92 1009.52 448.872C1007.34 442.824 1003.64 438.036 998.436 434.508C993.396 430.98 987.264 429.216 980.04 429.216C973.152 429.216 967.02 430.98 961.644 434.508C956.268 437.868 952.152 442.908 949.296 449.628C946.608 456.18 945.6 464.16 946.272 473.568C945.6 481.968 946.692 489.444 949.548 495.996C952.572 502.38 956.94 507.336 962.652 510.864C968.532 514.392 975.252 516.156 982.812 516.156C990.372 516.156 996.756 514.56 1001.96 511.368C1007.34 508.176 1011.54 503.892 1014.56 498.516L1041.28 511.62C1038.59 518.172 1034.39 523.968 1028.68 529.008C1022.96 534.048 1016.16 537.996 1008.26 540.852C1000.54 543.708 991.968 545.136 982.56 545.136Z" fill="white"/>
<path d="M1057.04 542.112L1104.92 473.316L1056.78 405.024H1095.59L1133.14 460.464H1115.75L1153.3 405.024H1191.86L1143.98 473.316L1191.6 542.112H1153.05L1116 486.924H1132.89L1095.84 542.112H1057.04Z" fill="white"/>
<path d="M1209.9 592.512V405.024H1240.9V432.24L1237.88 425.436C1242.58 418.044 1248.96 412.332 1257.03 408.3C1265.09 404.1 1274.42 402 1285 402C1297.94 402 1309.61 405.192 1320.03 411.576C1330.44 417.96 1338.68 426.528 1344.72 437.28C1350.94 448.032 1354.05 460.128 1354.05 473.568C1354.05 486.84 1351.02 498.936 1344.98 509.856C1338.93 520.776 1330.7 529.428 1320.28 535.812C1309.86 542.028 1298.02 545.136 1284.75 545.136C1274.84 545.136 1265.68 543.204 1257.28 539.34C1249.05 535.308 1242.5 529.596 1237.62 522.204L1242.92 515.652V592.512H1209.9ZM1280.97 514.896C1288.53 514.896 1295.25 513.132 1301.13 509.604C1307.01 506.076 1311.54 501.204 1314.74 494.988C1318.1 488.772 1319.78 481.632 1319.78 473.568C1319.78 465.504 1318.1 458.448 1314.74 452.4C1311.54 446.184 1307.01 441.312 1301.13 437.784C1295.25 434.088 1288.53 432.24 1280.97 432.24C1273.74 432.24 1267.19 434.004 1261.31 437.532C1255.6 441.06 1251.06 446.016 1247.7 452.4C1244.51 458.616 1242.92 465.672 1242.92 473.568C1242.92 481.632 1244.51 488.772 1247.7 494.988C1251.06 501.204 1255.6 506.076 1261.31 509.604C1267.19 513.132 1273.74 514.896 1280.97 514.896Z" fill="white"/>
<path d="M1379.22 542.112V405.024H1410.21V435.516L1407.69 430.98C1410.88 420.732 1415.84 413.592 1422.56 409.56C1429.45 405.528 1437.68 403.512 1447.26 403.512H1455.32V432.744H1443.48C1434.07 432.744 1426.51 435.684 1420.8 441.564C1415.08 447.276 1412.23 455.34 1412.23 465.756V542.112H1379.22Z" fill="white"/>
<path d="M1490.1 597.804C1486.41 597.804 1482.79 597.468 1479.27 596.796C1475.74 596.292 1472.55 595.368 1469.69 594.024V566.304C1471.87 566.808 1474.48 567.312 1477.5 567.816C1480.69 568.32 1483.63 568.572 1486.32 568.572C1493.88 568.572 1499.34 566.808 1502.7 563.28C1506.23 559.752 1509.34 555.132 1512.03 549.42L1521.1 528.252L1520.59 555.972L1460.87 405.024H1496.4L1538.23 516.408H1525.63L1567.21 405.024H1603L1543.27 555.972C1539.75 564.876 1535.46 572.436 1530.42 578.652C1525.38 584.868 1519.5 589.572 1512.78 592.764C1506.23 596.124 1498.67 597.804 1490.1 597.804Z" fill="white"/>
<path d="M710.935 677.576C708.407 677.576 706.087 677.128 703.975 676.232C701.863 675.304 700.023 674.024 698.455 672.392C696.919 670.728 695.719 668.776 694.855 666.536C693.991 664.296 693.559 661.832 693.559 659.144C693.559 656.456 693.991 653.992 694.855 651.752C695.719 649.512 696.919 647.56 698.455 645.896C700.023 644.232 701.863 642.952 703.975 642.056C706.087 641.128 708.407 640.664 710.935 640.664C713.367 640.664 715.543 641.096 717.463 641.96C719.415 642.824 721.047 643.944 722.359 645.32C723.703 646.664 724.663 648.088 725.239 649.592L721.639 651.176C720.743 649.096 719.367 647.432 717.511 646.184C715.687 644.904 713.495 644.264 710.935 644.264C708.311 644.264 705.975 644.888 703.927 646.136C701.879 647.384 700.279 649.128 699.127 651.368C697.975 653.576 697.399 656.168 697.399 659.144C697.399 662.088 697.975 664.68 699.127 666.92C700.279 669.16 701.879 670.904 703.927 672.152C705.975 673.368 708.311 673.976 710.935 673.976C713.495 673.976 715.687 673.352 717.511 672.104C719.367 670.856 720.743 669.192 721.639 667.112L725.239 668.696C724.663 670.168 723.703 671.592 722.359 672.968C721.047 674.312 719.415 675.416 717.463 676.28C715.543 677.144 713.367 677.576 710.935 677.576Z" fill="white" fill-opacity="0.5"/>
<path d="M731.587 677V651.272H735.187V655.496L734.707 654.872C735.315 653.656 736.227 652.696 737.443 651.992C738.691 651.288 740.195 650.936 741.955 650.936H743.587V654.536H741.331C739.475 654.536 737.987 655.112 736.867 656.264C735.747 657.416 735.187 659.048 735.187 661.16V677H731.587Z" fill="white" fill-opacity="0.5"/>
<path d="M759.517 677.576C757.117 677.576 754.941 677 752.989 675.848C751.069 674.664 749.549 673.048 748.429 671C747.309 668.952 746.749 666.632 746.749 664.04C746.749 661.448 747.293 659.16 748.381 657.176C749.469 655.16 750.941 653.576 752.797 652.424C754.685 651.272 756.797 650.696 759.133 650.696C760.989 650.696 762.637 651.048 764.077 651.752C765.549 652.424 766.797 653.352 767.821 654.536C768.845 655.688 769.629 657 770.173 658.472C770.717 659.912 770.989 661.4 770.989 662.936C770.989 663.256 770.973 663.624 770.941 664.04C770.909 664.424 770.861 664.824 770.797 665.24H749.053V661.88H768.733L767.005 663.32C767.293 661.56 767.085 659.992 766.381 658.616C765.709 657.208 764.733 656.104 763.453 655.304C762.173 654.472 760.733 654.056 759.133 654.056C757.533 654.056 756.045 654.472 754.669 655.304C753.325 656.136 752.269 657.304 751.501 658.808C750.733 660.28 750.429 662.04 750.589 664.088C750.429 666.136 750.749 667.928 751.549 669.464C752.381 670.968 753.501 672.136 754.909 672.968C756.349 673.8 757.885 674.216 759.517 674.216C761.405 674.216 762.989 673.768 764.269 672.872C765.549 671.976 766.589 670.856 767.389 669.512L770.461 671.144C769.949 672.296 769.165 673.368 768.109 674.36C767.053 675.32 765.789 676.104 764.317 676.712C762.877 677.288 761.277 677.576 759.517 677.576Z" fill="white" fill-opacity="0.5"/>
<path d="M784.308 677.576C782.676 677.576 781.22 677.272 779.94 676.664C778.66 676.024 777.652 675.16 776.916 674.072C776.18 672.984 775.812 671.736 775.812 670.328C775.812 668.984 776.1 667.768 776.676 666.68C777.252 665.56 778.148 664.616 779.364 663.848C780.58 663.08 782.132 662.536 784.02 662.216L794.1 660.536V663.8L784.884 665.336C783.028 665.656 781.684 666.248 780.852 667.112C780.052 667.976 779.652 669 779.652 670.184C779.652 671.336 780.1 672.312 780.996 673.112C781.924 673.912 783.108 674.312 784.548 674.312C786.308 674.312 787.844 673.944 789.156 673.208C790.468 672.44 791.492 671.416 792.228 670.136C792.964 668.856 793.332 667.432 793.332 665.864V659.336C793.332 657.8 792.772 656.552 791.652 655.592C790.532 654.632 789.076 654.152 787.284 654.152C785.716 654.152 784.34 654.552 783.156 655.352C781.972 656.12 781.092 657.128 780.516 658.376L777.252 656.6C777.732 655.512 778.484 654.52 779.508 653.624C780.564 652.728 781.764 652.024 783.108 651.512C784.452 650.968 785.844 650.696 787.284 650.696C789.172 650.696 790.836 651.064 792.276 651.8C793.748 652.536 794.884 653.56 795.684 654.872C796.516 656.152 796.932 657.64 796.932 659.336V677H793.332V671.864L793.86 672.392C793.412 673.352 792.708 674.232 791.748 675.032C790.82 675.8 789.716 676.424 788.436 676.904C787.188 677.352 785.812 677.576 784.308 677.576Z" fill="white" fill-opacity="0.5"/>
<path d="M813.708 677.288C811.404 677.288 809.628 676.616 808.38 675.272C807.132 673.928 806.508 672.008 806.508 669.512V654.872H801.756V651.272H802.956C804.044 651.272 804.908 650.92 805.548 650.216C806.188 649.48 806.508 648.568 806.508 647.48V645.32H810.108V651.272H815.772V654.872H810.108V669.512C810.108 670.376 810.236 671.144 810.492 671.816C810.748 672.456 811.18 672.968 811.788 673.352C812.428 673.736 813.276 673.928 814.332 673.928C814.588 673.928 814.892 673.912 815.244 673.88C815.596 673.848 815.9 673.816 816.156 673.784V677C815.772 677.096 815.34 677.16 814.86 677.192C814.38 677.256 813.996 677.288 813.708 677.288Z" fill="white" fill-opacity="0.5"/>
<path d="M833.252 677.576C830.852 677.576 828.676 677 826.724 675.848C824.804 674.664 823.284 673.048 822.164 671C821.044 668.952 820.484 666.632 820.484 664.04C820.484 661.448 821.028 659.16 822.116 657.176C823.204 655.16 824.676 653.576 826.532 652.424C828.42 651.272 830.532 650.696 832.868 650.696C834.724 650.696 836.372 651.048 837.812 651.752C839.284 652.424 840.532 653.352 841.556 654.536C842.58 655.688 843.364 657 843.908 658.472C844.452 659.912 844.724 661.4 844.724 662.936C844.724 663.256 844.708 663.624 844.676 664.04C844.644 664.424 844.596 664.824 844.532 665.24H822.788V661.88H842.468L840.74 663.32C841.028 661.56 840.82 659.992 840.116 658.616C839.444 657.208 838.468 656.104 837.188 655.304C835.908 654.472 834.468 654.056 832.868 654.056C831.268 654.056 829.78 654.472 828.404 655.304C827.06 656.136 826.004 657.304 825.236 658.808C824.468 660.28 824.164 662.04 824.324 664.088C824.164 666.136 824.484 667.928 825.284 669.464C826.116 670.968 827.236 672.136 828.644 672.968C830.084 673.8 831.62 674.216 833.252 674.216C835.14 674.216 836.724 673.768 838.004 672.872C839.284 671.976 840.324 670.856 841.124 669.512L844.196 671.144C843.684 672.296 842.9 673.368 841.844 674.36C840.788 675.32 839.524 676.104 838.052 676.712C836.612 677.288 835.012 677.576 833.252 677.576Z" fill="white" fill-opacity="0.5"/>
<path d="M859.755 677V641.24H863.595V673.4H879.435V677H859.755Z" fill="white" fill-opacity="0.5"/>
<path d="M896.775 677.576C894.343 677.576 892.135 677 890.151 675.848C888.167 674.664 886.583 673.064 885.399 671.048C884.247 669 883.671 666.68 883.671 664.088C883.671 661.528 884.247 659.24 885.399 657.224C886.551 655.208 888.103 653.624 890.055 652.472C892.039 651.288 894.279 650.696 896.775 650.696C899.271 650.696 901.495 651.272 903.447 652.424C905.431 653.576 906.983 655.16 908.103 657.176C909.255 659.192 909.831 661.496 909.831 664.088C909.831 666.712 909.239 669.048 908.055 671.096C906.871 673.112 905.287 674.696 903.303 675.848C901.351 677 899.175 677.576 896.775 677.576ZM896.775 673.976C898.503 673.976 900.055 673.544 901.431 672.68C902.839 671.816 903.943 670.632 904.743 669.128C905.575 667.624 905.991 665.944 905.991 664.088C905.991 662.232 905.575 660.568 904.743 659.096C903.943 657.624 902.839 656.456 901.431 655.592C900.055 654.728 898.503 654.296 896.775 654.296C895.047 654.296 893.479 654.728 892.071 655.592C890.695 656.456 889.591 657.624 888.759 659.096C887.927 660.568 887.511 662.232 887.511 664.088C887.511 665.944 887.927 667.624 888.759 669.128C889.591 670.632 890.695 671.816 892.071 672.68C893.479 673.544 895.047 673.976 896.775 673.976Z" fill="white" fill-opacity="0.5"/>
<path d="M928.372 687.56C926.612 687.56 924.98 687.288 923.476 686.744C922.004 686.2 920.724 685.448 919.636 684.488C918.58 683.56 917.764 682.472 917.188 681.224L920.5 679.448C921.012 680.664 921.924 681.72 923.236 682.616C924.548 683.512 926.228 683.96 928.276 683.96C929.844 683.96 931.284 683.656 932.596 683.048C933.908 682.44 934.964 681.544 935.764 680.36C936.564 679.176 936.964 677.72 936.964 675.992V670.28L937.54 670.808C936.644 672.664 935.316 674.104 933.556 675.128C931.796 676.12 929.876 676.616 927.796 676.616C925.396 676.616 923.236 676.04 921.316 674.888C919.396 673.736 917.876 672.184 916.756 670.232C915.668 668.248 915.124 666.056 915.124 663.656C915.124 661.224 915.668 659.032 916.756 657.08C917.876 655.128 919.38 653.576 921.268 652.424C923.188 651.272 925.364 650.696 927.796 650.696C929.876 650.696 931.764 651.176 933.46 652.136C935.188 653.096 936.548 654.392 937.54 656.024L936.964 657.032V651.272H940.564V675.992C940.564 678.2 940.036 680.168 938.98 681.896C937.956 683.656 936.516 685.032 934.66 686.024C932.836 687.048 930.74 687.56 928.372 687.56ZM927.988 673.016C929.652 673.016 931.156 672.6 932.5 671.768C933.844 670.904 934.916 669.768 935.716 668.36C936.548 666.92 936.964 665.352 936.964 663.656C936.964 661.96 936.548 660.408 935.716 659C934.916 657.56 933.844 656.424 932.5 655.592C931.156 654.728 929.652 654.296 927.988 654.296C926.292 654.296 924.756 654.728 923.38 655.592C922.004 656.424 920.916 657.544 920.116 658.952C919.348 660.36 918.964 661.928 918.964 663.656C918.964 665.352 919.348 666.92 920.116 668.36C920.916 669.768 921.988 670.904 923.332 671.768C924.708 672.6 926.26 673.016 927.988 673.016Z" fill="white" fill-opacity="0.5"/>
<path d="M947.962 677V651.272H951.562V677H947.962ZM947.962 646.52V641.24H951.562V646.52H947.962Z" fill="white" fill-opacity="0.5"/>
<path d="M970.69 677.576C968.162 677.576 965.938 676.984 964.018 675.8C962.098 674.616 960.594 673.016 959.506 671C958.418 668.952 957.874 666.648 957.874 664.088C957.874 661.528 958.418 659.24 959.506 657.224C960.594 655.208 962.098 653.624 964.018 652.472C965.938 651.288 968.162 650.696 970.69 650.696C972.29 650.696 973.794 650.984 975.202 651.56C976.61 652.136 977.858 652.92 978.946 653.912C980.034 654.872 980.85 655.992 981.394 657.272L978.13 658.952C977.49 657.576 976.514 656.456 975.202 655.592C973.89 654.728 972.386 654.296 970.69 654.296C968.994 654.296 967.458 654.728 966.082 655.592C964.738 656.424 963.666 657.592 962.866 659.096C962.098 660.568 961.714 662.248 961.714 664.136C961.714 665.992 962.098 667.672 962.866 669.176C963.666 670.648 964.738 671.816 966.082 672.68C967.458 673.544 968.994 673.976 970.69 673.976C972.386 673.976 973.874 673.544 975.154 672.68C976.466 671.816 977.458 670.664 978.13 669.224L981.394 671C980.85 672.248 980.034 673.368 978.946 674.36C977.858 675.352 976.61 676.136 975.202 676.712C973.794 677.288 972.29 677.576 970.69 677.576Z" fill="white" fill-opacity="0.5"/>
<path d="M1002.97 677L992.7 641.24H996.588L1005.47 673.256H1004.65L1013.77 641.24H1017.85L1026.92 673.256H1026.06L1034.99 641.24H1038.88L1028.6 677H1024.52L1015.36 644.84H1016.22L1007.05 677H1002.97Z" fill="white" fill-opacity="0.5"/>
<path d="M1043.12 677V651.272H1046.72V677H1043.12ZM1043.12 646.52V641.24H1046.72V646.52H1043.12Z" fill="white" fill-opacity="0.5"/>
<path d="M1063.93 677.288C1061.62 677.288 1059.85 676.616 1058.6 675.272C1057.35 673.928 1056.73 672.008 1056.73 669.512V654.872H1051.97V651.272H1053.17C1054.26 651.272 1055.13 650.92 1055.77 650.216C1056.41 649.48 1056.73 648.568 1056.73 647.48V645.32H1060.33V651.272H1065.99V654.872H1060.33V669.512C1060.33 670.376 1060.45 671.144 1060.71 671.816C1060.97 672.456 1061.4 672.968 1062.01 673.352C1062.65 673.736 1063.49 673.928 1064.55 673.928C1064.81 673.928 1065.11 673.912 1065.46 673.88C1065.81 673.848 1066.12 673.816 1066.37 673.784V677C1065.99 677.096 1065.56 677.16 1065.08 677.192C1064.6 677.256 1064.21 677.288 1063.93 677.288Z" fill="white" fill-opacity="0.5"/>
<path d="M1072.7 677V640.664H1076.3V656.264L1075.48 656.072C1076.12 654.408 1077.16 653.096 1078.6 652.136C1080.07 651.176 1081.77 650.696 1083.69 650.696C1085.51 650.696 1087.14 651.112 1088.58 651.944C1090.06 652.776 1091.21 653.928 1092.04 655.4C1092.9 656.84 1093.34 658.472 1093.34 660.296V677H1089.74V661.688C1089.74 660.12 1089.45 658.792 1088.87 657.704C1088.3 656.616 1087.5 655.784 1086.47 655.208C1085.48 654.6 1084.34 654.296 1083.06 654.296C1081.78 654.296 1080.63 654.6 1079.61 655.208C1078.58 655.784 1077.77 656.632 1077.16 657.752C1076.58 658.84 1076.3 660.152 1076.3 661.688V677H1072.7Z" fill="white" fill-opacity="0.5"/>
<path d="M1107.31 677V673.16H1109.23C1111.02 673.16 1112.43 672.632 1113.46 671.576C1114.48 670.488 1114.99 669.016 1114.99 667.16V641.24H1118.83V667.16C1118.83 669.176 1118.43 670.92 1117.63 672.392C1116.86 673.864 1115.76 675 1114.32 675.8C1112.88 676.6 1111.18 677 1109.23 677H1107.31Z" fill="white" fill-opacity="0.5"/>
<path d="M1139.32 677.576C1137.05 677.576 1134.98 677.144 1133.13 676.28C1131.27 675.416 1129.7 674.264 1128.42 672.824C1127.14 671.352 1126.23 669.736 1125.69 667.976L1129.14 666.68C1129.97 669.112 1131.27 670.968 1133.03 672.248C1134.79 673.496 1136.89 674.12 1139.32 674.12C1140.85 674.12 1142.2 673.88 1143.35 673.4C1144.53 672.888 1145.45 672.184 1146.09 671.288C1146.73 670.392 1147.05 669.352 1147.05 668.168C1147.05 666.408 1146.57 665.048 1145.61 664.088C1144.65 663.128 1143.27 662.392 1141.48 661.88L1135.05 659.96C1132.52 659.224 1130.57 657.992 1129.19 656.264C1127.85 654.536 1127.17 652.568 1127.17 650.36C1127.17 648.472 1127.64 646.808 1128.57 645.368C1129.49 643.896 1130.76 642.744 1132.36 641.912C1133.99 641.08 1135.83 640.664 1137.88 640.664C1140.02 640.664 1141.94 641.064 1143.64 641.864C1145.37 642.632 1146.82 643.656 1148.01 644.936C1149.19 646.216 1150.04 647.64 1150.55 649.208L1147.19 650.552C1146.42 648.44 1145.22 646.84 1143.59 645.752C1141.99 644.664 1140.1 644.12 1137.93 644.12C1136.55 644.12 1135.33 644.36 1134.28 644.84C1133.25 645.32 1132.45 646.008 1131.88 646.904C1131.3 647.8 1131.01 648.856 1131.01 650.072C1131.01 651.544 1131.48 652.872 1132.41 654.056C1133.33 655.208 1134.76 656.072 1136.68 656.648L1142.34 658.328C1145.16 659.16 1147.29 660.36 1148.73 661.928C1150.17 663.496 1150.89 665.464 1150.89 667.832C1150.89 669.752 1150.39 671.448 1149.4 672.92C1148.44 674.36 1147.08 675.496 1145.32 676.328C1143.59 677.16 1141.59 677.576 1139.32 677.576Z" fill="white" fill-opacity="0.5"/>
<path d="M1175.15 677.576C1172.65 677.576 1170.32 677.128 1168.14 676.232C1166 675.304 1164.11 674.024 1162.48 672.392C1160.85 670.728 1159.57 668.776 1158.64 666.536C1157.71 664.264 1157.25 661.784 1157.25 659.096C1157.25 656.408 1157.71 653.944 1158.64 651.704C1159.57 649.432 1160.85 647.48 1162.48 645.848C1164.11 644.184 1166 642.904 1168.14 642.008C1170.32 641.112 1172.65 640.664 1175.15 640.664C1177.65 640.664 1179.97 641.128 1182.11 642.056C1184.29 642.952 1186.19 644.232 1187.82 645.896C1189.45 647.528 1190.73 649.464 1191.66 651.704C1192.59 653.944 1193.05 656.408 1193.05 659.096C1193.05 661.784 1192.59 664.264 1191.66 666.536C1190.73 668.776 1189.45 670.728 1187.82 672.392C1186.19 674.024 1184.29 675.304 1182.11 676.232C1179.97 677.128 1177.65 677.576 1175.15 677.576ZM1175.15 673.976C1177.23 673.976 1179.12 673.592 1180.81 672.824C1182.54 672.056 1184.03 670.984 1185.28 669.608C1186.53 668.232 1187.49 666.648 1188.16 664.856C1188.86 663.064 1189.21 661.144 1189.21 659.096C1189.21 657.08 1188.86 655.176 1188.16 653.384C1187.49 651.592 1186.53 650.008 1185.28 648.632C1184.03 647.256 1182.54 646.184 1180.81 645.416C1179.12 644.648 1177.23 644.264 1175.15 644.264C1173.07 644.264 1171.17 644.648 1169.44 645.416C1167.74 646.184 1166.27 647.256 1165.02 648.632C1163.77 650.008 1162.8 651.592 1162.09 653.384C1161.42 655.176 1161.09 657.08 1161.09 659.096C1161.09 661.144 1161.42 663.064 1162.09 664.856C1162.8 666.648 1163.77 668.232 1165.02 669.608C1166.27 670.984 1167.76 672.056 1169.49 672.824C1171.21 673.592 1173.1 673.976 1175.15 673.976Z" fill="white" fill-opacity="0.5"/>
<path d="M1200.44 677V641.24H1203.8L1224.78 671.336H1223.48V641.24H1227.32V677H1223.96L1202.99 646.712H1204.28V677H1200.44Z" fill="white" fill-opacity="0.5"/>
<path d="M1235.4 683.24V681.56C1236.36 681.304 1237.07 680.808 1237.51 680.072C1237.96 679.336 1238.19 678.312 1238.19 677H1236.36V671.72H1240.2V675.752C1240.2 677.832 1239.8 679.496 1239 680.744C1238.2 682.024 1237 682.856 1235.4 683.24Z" fill="white" fill-opacity="0.5"/>
<path d="M1269.46 677.576C1266.93 677.576 1264.7 677.048 1262.78 675.992C1260.86 674.936 1259.38 673.496 1258.32 671.672C1257.26 669.816 1256.74 667.704 1256.74 665.336V641.24H1260.58V665.336C1260.58 667.064 1260.94 668.584 1261.68 669.896C1262.45 671.176 1263.49 672.184 1264.8 672.92C1266.14 673.624 1267.7 673.976 1269.46 673.976C1271.22 673.976 1272.75 673.624 1274.06 672.92C1275.41 672.184 1276.45 671.176 1277.18 669.896C1277.95 668.584 1278.34 667.064 1278.34 665.336V641.24H1282.18V665.336C1282.18 667.704 1281.65 669.816 1280.59 671.672C1279.54 673.496 1278.05 674.936 1276.13 675.992C1274.24 677.048 1272.02 677.576 1269.46 677.576Z" fill="white" fill-opacity="0.5"/>
<path d="M1289.96 677V651.272H1293.56V656.264L1292.75 656.072C1293.39 654.408 1294.43 653.096 1295.87 652.136C1297.34 651.176 1299.03 650.696 1300.95 650.696C1302.78 650.696 1304.41 651.112 1305.85 651.944C1307.32 652.776 1308.47 653.928 1309.31 655.4C1310.17 656.84 1310.6 658.472 1310.6 660.296V677H1307V661.688C1307 660.12 1306.71 658.792 1306.14 657.704C1305.59 656.616 1304.81 655.784 1303.79 655.208C1302.79 654.6 1301.64 654.296 1300.33 654.296C1299.02 654.296 1297.85 654.6 1296.83 655.208C1295.8 655.784 1295 656.632 1294.43 657.752C1293.85 658.84 1293.56 660.152 1293.56 661.688V677H1289.96Z" fill="white" fill-opacity="0.5"/>
<path d="M1317.48 677V640.664H1321.08V677H1317.48Z" fill="white" fill-opacity="0.5"/>
<path d="M1340.49 677.576C1338.06 677.576 1335.85 677 1333.87 675.848C1331.89 674.664 1330.3 673.064 1329.12 671.048C1327.97 669 1327.39 666.68 1327.39 664.088C1327.39 661.528 1327.97 659.24 1329.12 657.224C1330.27 655.208 1331.82 653.624 1333.77 652.472C1335.76 651.288 1338 650.696 1340.49 650.696C1342.99 650.696 1345.21 651.272 1347.17 652.424C1349.15 653.576 1350.7 655.16 1351.82 657.176C1352.97 659.192 1353.55 661.496 1353.55 664.088C1353.55 666.712 1352.96 669.048 1351.77 671.096C1350.59 673.112 1349.01 674.696 1347.02 675.848C1345.07 677 1342.89 677.576 1340.49 677.576ZM1340.49 673.976C1342.22 673.976 1343.77 673.544 1345.15 672.68C1346.56 671.816 1347.66 670.632 1348.46 669.128C1349.29 667.624 1349.71 665.944 1349.71 664.088C1349.71 662.232 1349.29 660.568 1348.46 659.096C1347.66 657.624 1346.56 656.456 1345.15 655.592C1343.77 654.728 1342.22 654.296 1340.49 654.296C1338.77 654.296 1337.2 654.728 1335.79 655.592C1334.41 656.456 1333.31 657.624 1332.48 659.096C1331.65 660.568 1331.23 662.232 1331.23 664.088C1331.23 665.944 1331.65 667.624 1332.48 669.128C1333.31 670.632 1334.41 671.816 1335.79 672.68C1337.2 673.544 1338.77 673.976 1340.49 673.976Z" fill="white" fill-opacity="0.5"/>
<path d="M1371.66 677.576C1369.13 677.576 1366.91 676.984 1364.99 675.8C1363.07 674.616 1361.56 673.016 1360.48 671C1359.39 668.952 1358.84 666.648 1358.84 664.088C1358.84 661.528 1359.39 659.24 1360.48 657.224C1361.56 655.208 1363.07 653.624 1364.99 652.472C1366.91 651.288 1369.13 650.696 1371.66 650.696C1373.26 650.696 1374.76 650.984 1376.17 651.56C1377.58 652.136 1378.83 652.92 1379.92 653.912C1381 654.872 1381.82 655.992 1382.36 657.272L1379.1 658.952C1378.46 657.576 1377.48 656.456 1376.17 655.592C1374.86 654.728 1373.36 654.296 1371.66 654.296C1369.96 654.296 1368.43 654.728 1367.05 655.592C1365.71 656.424 1364.64 657.592 1363.84 659.096C1363.07 660.568 1362.68 662.248 1362.68 664.136C1362.68 665.992 1363.07 667.672 1363.84 669.176C1364.64 670.648 1365.71 671.816 1367.05 672.68C1368.43 673.544 1369.96 673.976 1371.66 673.976C1373.36 673.976 1374.84 673.544 1376.12 672.68C1377.44 671.816 1378.43 670.664 1379.1 669.224L1382.36 671C1381.82 672.248 1381 673.368 1379.92 674.36C1378.83 675.352 1377.58 676.136 1376.17 676.712C1374.76 677.288 1373.26 677.576 1371.66 677.576Z" fill="white" fill-opacity="0.5"/>
<path d="M1388.68 677V640.664H1392.28V666.104L1390.74 665.864L1405.19 651.272H1409.85L1399.77 661.592L1410.76 677H1406.44L1396.12 662.744L1398.42 662.936L1391.08 670.52L1392.28 667.544V677H1388.68Z" fill="white" fill-opacity="0.5"/>
<path d="M1414.98 677V651.272H1418.58V677H1414.98ZM1414.98 646.52V641.24H1418.58V646.52H1414.98Z" fill="white" fill-opacity="0.5"/>
<path d="M1425.95 677V651.272H1429.55V656.264L1428.73 656.072C1429.37 654.408 1430.41 653.096 1431.85 652.136C1433.32 651.176 1435.02 650.696 1436.94 650.696C1438.76 650.696 1440.39 651.112 1441.83 651.944C1443.31 652.776 1444.46 653.928 1445.29 655.4C1446.15 656.84 1446.59 658.472 1446.59 660.296V677H1442.99V661.688C1442.99 660.12 1442.7 658.792 1442.12 657.704C1441.58 656.616 1440.79 655.784 1439.77 655.208C1438.78 654.6 1437.63 654.296 1436.31 654.296C1435 654.296 1433.83 654.6 1432.81 655.208C1431.79 655.784 1430.99 656.632 1430.41 657.752C1429.83 658.84 1429.55 660.152 1429.55 661.688V677H1425.95Z" fill="white" fill-opacity="0.5"/>
<path d="M1465.65 687.56C1463.89 687.56 1462.26 687.288 1460.76 686.744C1459.29 686.2 1458.01 685.448 1456.92 684.488C1455.86 683.56 1455.05 682.472 1454.47 681.224L1457.78 679.448C1458.29 680.664 1459.21 681.72 1460.52 682.616C1461.83 683.512 1463.51 683.96 1465.56 683.96C1467.13 683.96 1468.57 683.656 1469.88 683.048C1471.19 682.44 1472.25 681.544 1473.05 680.36C1473.85 679.176 1474.25 677.72 1474.25 675.992V670.28L1474.82 670.808C1473.93 672.664 1472.6 674.104 1470.84 675.128C1469.08 676.12 1467.16 676.616 1465.08 676.616C1462.68 676.616 1460.52 676.04 1458.6 674.888C1456.68 673.736 1455.16 672.184 1454.04 670.232C1452.95 668.248 1452.41 666.056 1452.41 663.656C1452.41 661.224 1452.95 659.032 1454.04 657.08C1455.16 655.128 1456.66 653.576 1458.55 652.424C1460.47 651.272 1462.65 650.696 1465.08 650.696C1467.16 650.696 1469.05 651.176 1470.74 652.136C1472.47 653.096 1473.83 654.392 1474.82 656.024L1474.25 657.032V651.272H1477.85V675.992C1477.85 678.2 1477.32 680.168 1476.26 681.896C1475.24 683.656 1473.8 685.032 1471.94 686.024C1470.12 687.048 1468.02 687.56 1465.65 687.56ZM1465.27 673.016C1466.93 673.016 1468.44 672.6 1469.78 671.768C1471.13 670.904 1472.2 669.768 1473 668.36C1473.83 666.92 1474.25 665.352 1474.25 663.656C1474.25 661.96 1473.83 660.408 1473 659C1472.2 657.56 1471.13 656.424 1469.78 655.592C1468.44 654.728 1466.93 654.296 1465.27 654.296C1463.57 654.296 1462.04 654.728 1460.66 655.592C1459.29 656.424 1458.2 657.544 1457.4 658.952C1456.63 660.36 1456.25 661.928 1456.25 663.656C1456.25 665.352 1456.63 666.92 1457.4 668.36C1458.2 669.768 1459.27 670.904 1460.61 671.768C1461.99 672.6 1463.54 673.016 1465.27 673.016Z" fill="white" fill-opacity="0.5"/>
<path d="M1493.93 677V641.24H1497.29L1518.26 671.336H1516.97V641.24H1520.81V677H1517.45L1496.47 646.712H1497.77V677H1493.93Z" fill="white" fill-opacity="0.5"/>
<path d="M1540.45 677.576C1538.05 677.576 1535.88 677 1533.93 675.848C1532.01 674.664 1530.49 673.048 1529.37 671C1528.25 668.952 1527.69 666.632 1527.69 664.04C1527.69 661.448 1528.23 659.16 1529.32 657.176C1530.41 655.16 1531.88 653.576 1533.73 652.424C1535.62 651.272 1537.73 650.696 1540.07 650.696C1541.93 650.696 1543.57 651.048 1545.01 651.752C1546.49 652.424 1547.73 653.352 1548.76 654.536C1549.78 655.688 1550.57 657 1551.11 658.472C1551.65 659.912 1551.93 661.4 1551.93 662.936C1551.93 663.256 1551.91 663.624 1551.88 664.04C1551.85 664.424 1551.8 664.824 1551.73 665.24H1529.99V661.88H1549.67L1547.94 663.32C1548.23 661.56 1548.02 659.992 1547.32 658.616C1546.65 657.208 1545.67 656.104 1544.39 655.304C1543.11 654.472 1541.67 654.056 1540.07 654.056C1538.47 654.056 1536.98 654.472 1535.61 655.304C1534.26 656.136 1533.21 657.304 1532.44 658.808C1531.67 660.28 1531.37 662.04 1531.53 664.088C1531.37 666.136 1531.69 667.928 1532.49 669.464C1533.32 670.968 1534.44 672.136 1535.85 672.968C1537.29 673.8 1538.82 674.216 1540.45 674.216C1542.34 674.216 1543.93 673.768 1545.21 672.872C1546.49 671.976 1547.53 670.856 1548.33 669.512L1551.4 671.144C1550.89 672.296 1550.1 673.368 1549.05 674.36C1547.99 675.32 1546.73 676.104 1545.25 676.712C1543.81 677.288 1542.21 677.576 1540.45 677.576Z" fill="white" fill-opacity="0.5"/>
<path d="M1563.94 677L1555.11 651.272H1559.19L1566.48 673.784H1565.04L1571.91 651.272H1575.51L1582.37 673.784H1580.93L1588.27 651.272H1592.31L1583.47 677H1579.87L1573.2 654.968H1574.21L1567.54 677H1563.94Z" fill="white" fill-opacity="0.5"/>
<path d="M1605.21 677V641.24H1617.5C1619.83 641.24 1621.88 641.704 1623.64 642.632C1625.4 643.528 1626.76 644.808 1627.72 646.472C1628.71 648.104 1629.21 650.008 1629.21 652.184C1629.21 654.36 1628.71 656.264 1627.72 657.896C1626.76 659.528 1625.4 660.808 1623.64 661.736C1621.91 662.632 1619.86 663.08 1617.5 663.08H1609.05V677H1605.21ZM1609.05 659.48H1617.69C1619.22 659.48 1620.57 659.192 1621.72 658.616C1622.87 658.008 1623.77 657.16 1624.41 656.072C1625.05 654.952 1625.37 653.64 1625.37 652.136C1625.37 650.632 1625.05 649.336 1624.41 648.248C1623.77 647.16 1622.87 646.328 1621.72 645.752C1620.57 645.144 1619.22 644.84 1617.69 644.84H1609.05V659.48Z" fill="white" fill-opacity="0.5"/>
<path d="M1646.63 677.576C1644.2 677.576 1641.99 677 1640.01 675.848C1638.03 674.664 1636.44 673.064 1635.26 671.048C1634.11 669 1633.53 666.68 1633.53 664.088C1633.53 661.528 1634.11 659.24 1635.26 657.224C1636.41 655.208 1637.96 653.624 1639.91 652.472C1641.9 651.288 1644.14 650.696 1646.63 650.696C1649.13 650.696 1651.35 651.272 1653.31 652.424C1655.29 653.576 1656.84 655.16 1657.96 657.176C1659.11 659.192 1659.69 661.496 1659.69 664.088C1659.69 666.712 1659.1 669.048 1657.91 671.096C1656.73 673.112 1655.15 674.696 1653.16 675.848C1651.21 677 1649.03 677.576 1646.63 677.576ZM1646.63 673.976C1648.36 673.976 1649.91 673.544 1651.29 672.68C1652.7 671.816 1653.8 670.632 1654.6 669.128C1655.43 667.624 1655.85 665.944 1655.85 664.088C1655.85 662.232 1655.43 660.568 1654.6 659.096C1653.8 657.624 1652.7 656.456 1651.29 655.592C1649.91 654.728 1648.36 654.296 1646.63 654.296C1644.91 654.296 1643.34 654.728 1641.93 655.592C1640.55 656.456 1639.45 657.624 1638.62 659.096C1637.79 660.568 1637.37 662.232 1637.37 664.088C1637.37 665.944 1637.79 667.624 1638.62 669.128C1639.45 670.632 1640.55 671.816 1641.93 672.68C1643.34 673.544 1644.91 673.976 1646.63 673.976Z" fill="white" fill-opacity="0.5"/>
<path d="M1674.97 677.576C1672.5 677.576 1670.34 676.952 1668.49 675.704C1666.63 674.456 1665.29 672.76 1664.46 670.616L1667.48 669.176C1668.22 670.744 1669.24 671.992 1670.55 672.92C1671.9 673.848 1673.37 674.312 1674.97 674.312C1676.5 674.312 1677.8 673.944 1678.86 673.208C1679.91 672.44 1680.44 671.448 1680.44 670.232C1680.44 669.336 1680.18 668.632 1679.67 668.12C1679.16 667.576 1678.57 667.16 1677.9 666.872C1677.22 666.584 1676.63 666.376 1676.12 666.248L1672.42 665.192C1670.06 664.52 1668.34 663.576 1667.29 662.36C1666.23 661.144 1665.7 659.736 1665.7 658.136C1665.7 656.632 1666.09 655.32 1666.86 654.2C1667.62 653.08 1668.66 652.216 1669.98 651.608C1671.29 651 1672.74 650.696 1674.34 650.696C1676.52 650.696 1678.49 651.272 1680.25 652.424C1682.04 653.544 1683.3 655.112 1684.04 657.128L1680.97 658.568C1680.33 657.128 1679.4 656.008 1678.18 655.208C1677 654.376 1675.67 653.96 1674.2 653.96C1672.76 653.96 1671.61 654.328 1670.74 655.064C1669.88 655.8 1669.45 656.728 1669.45 657.848C1669.45 658.712 1669.67 659.4 1670.12 659.912C1670.57 660.424 1671.08 660.808 1671.66 661.064C1672.26 661.32 1672.79 661.512 1673.24 661.64L1677.51 662.888C1679.59 663.496 1681.21 664.44 1682.36 665.72C1683.54 667 1684.14 668.504 1684.14 670.232C1684.14 671.64 1683.74 672.904 1682.94 674.024C1682.17 675.144 1681.1 676.024 1679.72 676.664C1678.34 677.272 1676.76 677.576 1674.97 677.576Z" fill="white" fill-opacity="0.5"/>
<path d="M1699.39 677.576C1696.93 677.576 1694.77 676.952 1692.91 675.704C1691.05 674.456 1689.71 672.76 1688.88 670.616L1691.9 669.176C1692.64 670.744 1693.66 671.992 1694.97 672.92C1696.32 673.848 1697.79 674.312 1699.39 674.312C1700.93 674.312 1702.22 673.944 1703.28 673.208C1704.33 672.44 1704.86 671.448 1704.86 670.232C1704.86 669.336 1704.61 668.632 1704.09 668.12C1703.58 667.576 1702.99 667.16 1702.32 666.872C1701.65 666.584 1701.05 666.376 1700.54 666.248L1696.85 665.192C1694.48 664.52 1692.77 663.576 1691.71 662.36C1690.65 661.144 1690.13 659.736 1690.13 658.136C1690.13 656.632 1690.51 655.32 1691.28 654.2C1692.05 653.08 1693.09 652.216 1694.4 651.608C1695.71 651 1697.17 650.696 1698.77 650.696C1700.94 650.696 1702.91 651.272 1704.67 652.424C1706.46 653.544 1707.73 655.112 1708.46 657.128L1705.39 658.568C1704.75 657.128 1703.82 656.008 1702.61 655.208C1701.42 654.376 1700.09 653.96 1698.62 653.96C1697.18 653.96 1696.03 654.328 1695.17 655.064C1694.3 655.8 1693.87 656.728 1693.87 657.848C1693.87 658.712 1694.09 659.4 1694.54 659.912C1694.99 660.424 1695.5 660.808 1696.08 661.064C1696.69 661.32 1697.21 661.512 1697.66 661.64L1701.93 662.888C1704.01 663.496 1705.63 664.44 1706.78 665.72C1707.97 667 1708.56 668.504 1708.56 670.232C1708.56 671.64 1708.16 672.904 1707.36 674.024C1706.59 675.144 1705.52 676.024 1704.14 676.664C1702.77 677.272 1701.18 677.576 1699.39 677.576Z" fill="white" fill-opacity="0.5"/>
<path d="M1714.88 677V651.272H1718.48V677H1714.88ZM1714.88 646.52V641.24H1718.48V646.52H1714.88Z" fill="white" fill-opacity="0.5"/>
<path d="M1738.86 677.576C1736.65 677.576 1734.65 677.08 1732.86 676.088C1731.1 675.064 1729.77 673.624 1728.88 671.768L1729.45 671.24V677H1725.85V640.664H1729.45V657.032L1728.88 656.024C1729.9 654.392 1731.26 653.096 1732.96 652.136C1734.68 651.176 1736.65 650.696 1738.86 650.696C1741.29 650.696 1743.45 651.288 1745.34 652.472C1747.26 653.624 1748.76 655.208 1749.85 657.224C1750.97 659.24 1751.53 661.544 1751.53 664.136C1751.53 666.696 1750.97 669 1749.85 671.048C1748.76 673.064 1747.26 674.664 1745.34 675.848C1743.45 677 1741.29 677.576 1738.86 677.576ZM1738.67 673.976C1740.4 673.976 1741.93 673.544 1743.28 672.68C1744.65 671.816 1745.72 670.648 1746.49 669.176C1747.29 667.672 1747.69 665.992 1747.69 664.136C1747.69 662.248 1747.29 660.568 1746.49 659.096C1745.72 657.624 1744.65 656.456 1743.28 655.592C1741.93 654.728 1740.4 654.296 1738.67 654.296C1736.94 654.296 1735.37 654.728 1733.96 655.592C1732.59 656.456 1731.48 657.64 1730.65 659.144C1729.85 660.616 1729.45 662.28 1729.45 664.136C1729.45 665.992 1729.85 667.672 1730.65 669.176C1731.48 670.648 1732.59 671.816 1733.96 672.68C1735.37 673.544 1736.94 673.976 1738.67 673.976Z" fill="white" fill-opacity="0.5"/>
<path d="M1757.87 677V651.272H1761.47V677H1757.87ZM1757.87 646.52V641.24H1761.47V646.52H1757.87Z" fill="white" fill-opacity="0.5"/>
<path d="M1768.84 677V640.664H1772.44V677H1768.84Z" fill="white" fill-opacity="0.5"/>
<path d="M1779.81 677V651.272H1783.41V677H1779.81ZM1779.81 646.52V641.24H1783.41V646.52H1779.81Z" fill="white" fill-opacity="0.5"/>
<path d="M1800.61 677.288C1798.31 677.288 1796.53 676.616 1795.29 675.272C1794.04 673.928 1793.41 672.008 1793.41 669.512V654.872H1788.66V651.272H1789.86C1790.95 651.272 1791.81 650.92 1792.45 650.216C1793.09 649.48 1793.41 648.568 1793.41 647.48V645.32H1797.01V651.272H1802.68V654.872H1797.01V669.512C1797.01 670.376 1797.14 671.144 1797.4 671.816C1797.65 672.456 1798.09 672.968 1798.69 673.352C1799.33 673.736 1800.18 673.928 1801.24 673.928C1801.49 673.928 1801.8 673.912 1802.15 673.88C1802.5 673.848 1802.81 673.816 1803.06 673.784V677C1802.68 677.096 1802.25 677.16 1801.77 677.192C1801.29 677.256 1800.9 677.288 1800.61 677.288Z" fill="white" fill-opacity="0.5"/>
<path d="M1809.38 677V651.272H1812.98V677H1809.38ZM1809.38 646.52V641.24H1812.98V646.52H1809.38Z" fill="white" fill-opacity="0.5"/>
<path d="M1832.06 677.576C1829.66 677.576 1827.49 677 1825.54 675.848C1823.62 674.664 1822.1 673.048 1820.98 671C1819.86 668.952 1819.3 666.632 1819.3 664.04C1819.3 661.448 1819.84 659.16 1820.93 657.176C1822.02 655.16 1823.49 653.576 1825.34 652.424C1827.23 651.272 1829.34 650.696 1831.68 650.696C1833.54 650.696 1835.18 651.048 1836.62 651.752C1838.1 652.424 1839.34 653.352 1840.37 654.536C1841.39 655.688 1842.18 657 1842.72 658.472C1843.26 659.912 1843.54 661.4 1843.54 662.936C1843.54 663.256 1843.52 663.624 1843.49 664.04C1843.46 664.424 1843.41 664.824 1843.34 665.24H1821.6V661.88H1841.28L1839.55 663.32C1839.84 661.56 1839.63 659.992 1838.93 658.616C1838.26 657.208 1837.28 656.104 1836 655.304C1834.72 654.472 1833.28 654.056 1831.68 654.056C1830.08 654.056 1828.59 654.472 1827.22 655.304C1825.87 656.136 1824.82 657.304 1824.05 658.808C1823.28 660.28 1822.98 662.04 1823.14 664.088C1822.98 666.136 1823.3 667.928 1824.1 669.464C1824.93 670.968 1826.05 672.136 1827.46 672.968C1828.9 673.8 1830.43 674.216 1832.06 674.216C1833.95 674.216 1835.54 673.768 1836.82 672.872C1838.1 671.976 1839.14 670.856 1839.94 669.512L1843.01 671.144C1842.5 672.296 1841.71 673.368 1840.66 674.36C1839.6 675.32 1838.34 676.104 1836.86 676.712C1835.42 677.288 1833.82 677.576 1832.06 677.576Z" fill="white" fill-opacity="0.5"/>
<path d="M1858.81 677.576C1856.35 677.576 1854.19 676.952 1852.33 675.704C1850.48 674.456 1849.13 672.76 1848.3 670.616L1851.32 669.176C1852.06 670.744 1853.08 671.992 1854.4 672.92C1855.74 673.848 1857.21 674.312 1858.81 674.312C1860.35 674.312 1861.64 673.944 1862.7 673.208C1863.76 672.44 1864.28 671.448 1864.28 670.232C1864.28 669.336 1864.03 668.632 1863.52 668.12C1863 667.576 1862.41 667.16 1861.74 666.872C1861.07 666.584 1860.48 666.376 1859.96 666.248L1856.27 665.192C1853.9 664.52 1852.19 663.576 1851.13 662.36C1850.08 661.144 1849.55 659.736 1849.55 658.136C1849.55 656.632 1849.93 655.32 1850.7 654.2C1851.47 653.08 1852.51 652.216 1853.82 651.608C1855.13 651 1856.59 650.696 1858.19 650.696C1860.36 650.696 1862.33 651.272 1864.09 652.424C1865.88 653.544 1867.15 655.112 1867.88 657.128L1864.81 658.568C1864.17 657.128 1863.24 656.008 1862.03 655.208C1860.84 654.376 1859.52 653.96 1858.04 653.96C1856.6 653.96 1855.45 654.328 1854.59 655.064C1853.72 655.8 1853.29 656.728 1853.29 657.848C1853.29 658.712 1853.52 659.4 1853.96 659.912C1854.41 660.424 1854.92 660.808 1855.5 661.064C1856.11 661.32 1856.64 661.512 1857.08 661.64L1861.36 662.888C1863.44 663.496 1865.05 664.44 1866.2 665.72C1867.39 667 1867.98 668.504 1867.98 670.232C1867.98 671.64 1867.58 672.904 1866.78 674.024C1866.01 675.144 1864.94 676.024 1863.56 676.664C1862.19 677.272 1860.6 677.576 1858.81 677.576Z" fill="white" fill-opacity="0.5"/>
</svg>
