<svg width="2560" height="1000" viewBox="0 0 2560 1000" fill="none" xmlns="http://www.w3.org/2000/svg">
<path d="M0 0H2560V1000H0V0Z" fill="black"/>
<path d="M1613.17 542.453V506.112H1647.44V542.453H1613.17Z" fill="#6366f1"/>
<path d="M982.56 545.136C968.448 545.136 956.1 541.944 945.516 535.56C934.932 529.176 926.7 520.524 920.82 509.604C914.94 498.684 912 486.588 912 473.316C912 459.54 914.94 447.36 920.82 436.776C926.868 426.024 935.016 417.54 945.264 411.324C955.68 405.108 967.272 402 980.04 402C990.792 402 1000.2 403.764 1008.26 407.292C1016.5 410.82 1023.47 415.692 1029.18 421.908C1034.89 428.124 1039.26 435.264 1042.28 443.328C1045.31 451.224 1046.82 459.792 1046.82 469.032C1046.82 471.384 1046.65 473.82 1046.32 476.34C1046.15 478.86 1045.73 481.044 1045.06 482.892H939.216V457.692H1026.41L1010.78 469.536C1012.3 461.808 1011.88 454.92 1009.52 448.872C1007.34 442.824 1003.64 438.036 998.436 434.508C993.396 430.98 987.264 429.216 980.04 429.216C973.152 429.216 967.02 430.98 961.644 434.508C956.268 437.868 952.152 442.908 949.296 449.628C946.608 456.18 945.6 464.16 946.272 473.568C945.6 481.968 946.692 489.444 949.548 495.996C952.572 502.38 956.94 507.336 962.652 510.864C968.532 514.392 975.252 516.156 982.812 516.156C990.372 516.156 996.756 514.56 1001.96 511.368C1007.34 508.176 1011.54 503.892 1014.56 498.516L1041.28 511.62C1038.59 518.172 1034.39 523.968 1028.68 529.008C1022.96 534.048 1016.16 537.996 1008.26 540.852C1000.54 543.708 991.968 545.136 982.56 545.136Z" fill="white"/>
<path d="M1057.04 542.112L1104.92 473.316L1056.78 405.024H1095.59L1133.14 460.464H1115.75L1153.3 405.024H1191.86L1143.98 473.316L1191.6 542.112H1153.05L1116 486.924H1132.89L1095.84 542.112H1057.04Z" fill="white"/>
<path d="M1209.9 592.512V405.024H1240.9V432.24L1237.88 425.436C1242.58 418.044 1248.96 412.332 1257.03 408.3C1265.09 404.1 1274.42 402 1285 402C1297.94 402 1309.61 405.192 1320.03 411.576C1330.44 417.96 1338.68 426.528 1344.72 437.28C1350.94 448.032 1354.05 460.128 1354.05 473.568C1354.05 486.84 1351.02 498.936 1344.98 509.856C1338.93 520.776 1330.7 529.428 1320.28 535.812C1309.86 542.028 1298.02 545.136 1284.75 545.136C1274.84 545.136 1265.68 543.204 1257.28 539.34C1249.05 535.308 1242.5 529.596 1237.62 522.204L1242.92 515.652V592.512H1209.9ZM1280.97 514.896C1288.53 514.896 1295.25 513.132 1301.13 509.604C1307.01 506.076 1311.54 501.204 1314.74 494.988C1318.1 488.772 1319.78 481.632 1319.78 473.568C1319.78 465.504 1318.1 458.448 1314.74 452.4C1311.54 446.184 1307.01 441.312 1301.13 437.784C1295.25 434.088 1288.53 432.24 1280.97 432.24C1273.74 432.24 1267.19 434.004 1261.31 437.532C1255.6 441.06 1251.06 446.016 1247.7 452.4C1244.51 458.616 1242.92 465.672 1242.92 473.568C1242.92 481.632 1244.51 488.772 1247.7 494.988C1251.06 501.204 1255.6 506.076 1261.31 509.604C1267.19 513.132 1273.74 514.896 1280.97 514.896Z" fill="white"/>
<path d="M1379.22 542.112V405.024H1410.21V435.516L1407.69 430.98C1410.88 420.732 1415.84 413.592 1422.56 409.56C1429.45 405.528 1437.68 403.512 1447.26 403.512H1455.32V432.744H1443.48C1434.07 432.744 1426.51 435.684 1420.8 441.564C1415.08 447.276 1412.23 455.34 1412.23 465.756V542.112H1379.22Z" fill="white"/>
<path d="M1490.1 597.804C1486.41 597.804 1482.79 597.468 1479.27 596.796C1475.74 596.292 1472.55 595.368 1469.69 594.024V566.304C1471.87 566.808 1474.48 567.312 1477.5 567.816C1480.69 568.32 1483.63 568.572 1486.32 568.572C1493.88 568.572 1499.34 566.808 1502.7 563.28C1506.23 559.752 1509.34 555.132 1512.03 549.42L1521.1 528.252L1520.59 555.972L1460.87 405.024H1496.4L1538.23 516.408H1525.63L1567.21 405.024H1603L1543.27 555.972C1539.75 564.876 1535.46 572.436 1530.42 578.652C1525.38 584.868 1519.5 589.572 1512.78 592.764C1506.23 596.124 1498.67 597.804 1490.1 597.804Z" fill="white"/>
<path d="M698.602 677.576C696.074 677.576 693.722 677.112 691.546 676.184C689.402 675.256 687.53 673.976 685.93 672.344C684.362 670.68 683.13 668.728 682.234 666.488C681.338 664.248 680.89 661.784 680.89 659.096C680.89 656.44 681.322 653.992 682.186 651.752C683.082 649.48 684.33 647.528 685.93 645.896C687.53 644.232 689.402 642.952 691.546 642.056C693.69 641.128 696.042 640.664 698.602 640.664C701.13 640.664 703.386 641.096 705.37 641.96C707.386 642.824 709.082 643.96 710.458 645.368C711.834 646.744 712.826 648.248 713.434 649.88L708.346 652.28C707.578 650.36 706.346 648.808 704.65 647.624C702.986 646.408 700.97 645.8 698.602 645.8C696.234 645.8 694.138 646.36 692.314 647.48C690.49 648.6 689.066 650.152 688.042 652.136C687.05 654.12 686.554 656.44 686.554 659.096C686.554 661.752 687.05 664.088 688.042 666.104C689.066 668.088 690.49 669.64 692.314 670.76C694.138 671.848 696.234 672.392 698.602 672.392C700.97 672.392 702.986 671.8 704.65 670.616C706.346 669.432 707.578 667.88 708.346 665.96L713.434 668.36C712.826 669.96 711.834 671.464 710.458 672.872C709.082 674.28 707.386 675.416 705.37 676.28C703.386 677.144 701.13 677.576 698.602 677.576Z" fill="#737373"/>
<path d="M718.731 677V651.032H723.914V656.264L723.435 655.496C724.011 653.8 724.939 652.584 726.219 651.848C727.499 651.08 729.034 650.696 730.826 650.696H732.411V655.64H730.154C728.362 655.64 726.906 656.2 725.786 657.32C724.698 658.408 724.154 659.976 724.154 662.024V677H718.731Z" fill="#737373"/>
<path d="M748.313 677.576C745.721 677.576 743.417 676.984 741.401 675.8C739.417 674.584 737.865 672.952 736.745 670.904C735.625 668.824 735.065 666.504 735.065 663.944C735.065 661.32 735.625 659 736.745 656.984C737.897 654.968 739.433 653.384 741.353 652.232C743.273 651.048 745.449 650.456 747.881 650.456C749.833 650.456 751.577 650.792 753.113 651.464C754.649 652.136 755.945 653.064 757.001 654.248C758.057 655.4 758.857 656.728 759.401 658.232C759.977 659.736 760.265 661.336 760.265 663.032C760.265 663.448 760.249 663.88 760.217 664.328C760.185 664.776 760.121 665.192 760.025 665.576H739.337V661.256H756.953L754.361 663.224C754.681 661.656 754.569 660.264 754.025 659.048C753.513 657.8 752.713 656.824 751.625 656.12C750.569 655.384 749.321 655.016 747.881 655.016C746.441 655.016 745.161 655.384 744.041 656.12C742.921 656.824 742.057 657.848 741.449 659.192C740.841 660.504 740.601 662.104 740.729 663.992C740.569 665.752 740.809 667.288 741.449 668.6C742.121 669.912 743.049 670.936 744.233 671.672C745.449 672.408 746.825 672.776 748.361 672.776C749.929 672.776 751.257 672.424 752.345 671.72C753.465 671.016 754.345 670.104 754.985 668.984L759.401 671.144C758.889 672.36 758.089 673.464 757.001 674.456C755.945 675.416 754.665 676.184 753.161 676.76C751.689 677.304 750.073 677.576 748.313 677.576Z" fill="#737373"/>
<path d="M773.1 677.576C771.34 677.576 769.788 677.272 768.444 676.664C767.132 676.024 766.108 675.16 765.372 674.072C764.636 672.952 764.268 671.64 764.268 670.136C764.268 668.728 764.572 667.464 765.18 666.344C765.82 665.224 766.796 664.28 768.108 663.512C769.42 662.744 771.068 662.2 773.052 661.88L782.076 660.392V664.664L774.108 666.056C772.668 666.312 771.612 666.776 770.94 667.448C770.268 668.088 769.932 668.92 769.932 669.944C769.932 670.936 770.3 671.752 771.036 672.392C771.804 673 772.78 673.304 773.964 673.304C775.436 673.304 776.716 672.984 777.804 672.344C778.924 671.704 779.788 670.856 780.396 669.8C781.004 668.712 781.308 667.512 781.308 666.2V659.528C781.308 658.248 780.828 657.208 779.868 656.408C778.94 655.576 777.692 655.16 776.124 655.16C774.684 655.16 773.42 655.544 772.332 656.312C771.276 657.048 770.492 658.008 769.98 659.192L765.468 656.936C765.948 655.656 766.732 654.536 767.82 653.576C768.908 652.584 770.172 651.816 771.612 651.272C773.084 650.728 774.636 650.456 776.268 650.456C778.316 650.456 780.124 650.84 781.692 651.608C783.292 652.376 784.524 653.448 785.388 654.824C786.284 656.168 786.732 657.736 786.732 659.528V677H781.548V672.296L782.652 672.44C782.044 673.496 781.26 674.408 780.3 675.176C779.372 675.944 778.3 676.536 777.084 676.952C775.9 677.368 774.572 677.576 773.1 677.576Z" fill="#737373"/>
<path d="M803.838 677.288C801.118 677.288 799.006 676.52 797.502 674.984C795.998 673.448 795.245 671.288 795.245 668.504V655.928H790.685V651.032H791.406C792.622 651.032 793.565 650.68 794.237 649.976C794.909 649.272 795.245 648.312 795.245 647.096V645.08H800.669V651.032H806.573V655.928H800.669V668.264C800.669 669.16 800.814 669.928 801.102 670.568C801.39 671.176 801.854 671.656 802.494 672.008C803.134 672.328 803.966 672.488 804.99 672.488C805.246 672.488 805.534 672.472 805.854 672.44C806.174 672.408 806.478 672.376 806.766 672.344V677C806.318 677.064 805.822 677.128 805.278 677.192C804.734 677.256 804.254 677.288 803.838 677.288Z" fill="#737373"/>
<path d="M823.782 677.576C821.19 677.576 818.886 676.984 816.87 675.8C814.886 674.584 813.334 672.952 812.214 670.904C811.094 668.824 810.534 666.504 810.534 663.944C810.534 661.32 811.094 659 812.214 656.984C813.366 654.968 814.902 653.384 816.822 652.232C818.742 651.048 820.918 650.456 823.35 650.456C825.302 650.456 827.046 650.792 828.582 651.464C830.118 652.136 831.414 653.064 832.47 654.248C833.526 655.4 834.326 656.728 834.87 658.232C835.446 659.736 835.734 661.336 835.734 663.032C835.734 663.448 835.718 663.88 835.686 664.328C835.654 664.776 835.59 665.192 835.494 665.576H814.806V661.256H832.422L829.83 663.224C830.15 661.656 830.038 660.264 829.494 659.048C828.982 657.8 828.182 656.824 827.094 656.12C826.038 655.384 824.79 655.016 823.35 655.016C821.91 655.016 820.63 655.384 819.51 656.12C818.39 656.824 817.526 657.848 816.918 659.192C816.31 660.504 816.07 662.104 816.198 663.992C816.038 665.752 816.278 667.288 816.918 668.6C817.59 669.912 818.518 670.936 819.702 671.672C820.918 672.408 822.294 672.776 823.83 672.776C825.398 672.776 826.726 672.424 827.814 671.72C828.934 671.016 829.814 670.104 830.454 668.984L834.87 671.144C834.358 672.36 833.558 673.464 832.47 674.456C831.414 675.416 830.134 676.184 828.63 676.76C827.158 677.304 825.542 677.576 823.782 677.576Z" fill="#737373"/>
<path d="M849.946 677V641.24H855.61V671.96H871.066V677H849.946Z" fill="#737373"/>
<path d="M887.821 677.576C885.325 677.576 883.037 676.984 880.957 675.8C878.909 674.616 877.277 673 876.061 670.952C874.845 668.904 874.237 666.584 874.237 663.992C874.237 661.368 874.845 659.048 876.061 657.032C877.277 654.984 878.909 653.384 880.957 652.232C883.005 651.048 885.293 650.456 887.821 650.456C890.381 650.456 892.669 651.048 894.685 652.232C896.733 653.384 898.349 654.984 899.533 657.032C900.749 659.048 901.357 661.368 901.357 663.992C901.357 666.616 900.749 668.952 899.533 671C898.317 673.048 896.685 674.664 894.637 675.848C892.589 677 890.317 677.576 887.821 677.576ZM887.821 672.536C889.357 672.536 890.717 672.168 891.901 671.432C893.085 670.696 894.013 669.688 894.685 668.408C895.389 667.096 895.741 665.624 895.741 663.992C895.741 662.36 895.389 660.904 894.685 659.624C894.013 658.344 893.085 657.336 891.901 656.6C890.717 655.864 889.357 655.496 887.821 655.496C886.317 655.496 884.957 655.864 883.741 656.6C882.557 657.336 881.613 658.344 880.909 659.624C880.237 660.904 879.901 662.36 879.901 663.992C879.901 665.624 880.237 667.096 880.909 668.408C881.613 669.688 882.557 670.696 883.741 671.432C884.957 672.168 886.317 672.536 887.821 672.536Z" fill="#737373"/>
<path d="M919.18 687.56C917.292 687.56 915.548 687.256 913.948 686.648C912.348 686.04 910.972 685.192 909.82 684.104C908.668 683.048 907.804 681.8 907.228 680.36L912.22 678.296C912.668 679.512 913.484 680.52 914.668 681.32C915.884 682.12 917.372 682.52 919.132 682.52C920.508 682.52 921.74 682.248 922.828 681.704C923.916 681.192 924.78 680.424 925.42 679.4C926.06 678.408 926.38 677.208 926.38 675.8V669.944L927.34 671.048C926.444 672.712 925.196 673.976 923.596 674.84C922.028 675.704 920.252 676.136 918.268 676.136C915.868 676.136 913.708 675.576 911.788 674.456C909.868 673.336 908.348 671.8 907.228 669.848C906.14 667.896 905.596 665.704 905.596 663.272C905.596 660.808 906.14 658.616 907.228 656.696C908.348 654.776 909.852 653.256 911.74 652.136C913.628 651.016 915.788 650.456 918.22 650.456C920.204 650.456 921.964 650.888 923.5 651.752C925.068 652.584 926.348 653.8 927.34 655.4L926.62 656.744V651.032H931.756V675.8C931.756 678.04 931.212 680.04 930.124 681.8C929.068 683.592 927.596 685 925.708 686.024C923.82 687.048 921.644 687.56 919.18 687.56ZM918.892 671.096C920.332 671.096 921.612 670.76 922.732 670.088C923.852 669.384 924.732 668.456 925.372 667.304C926.044 666.12 926.38 664.792 926.38 663.32C926.38 661.848 926.044 660.52 925.372 659.336C924.7 658.152 923.804 657.224 922.684 656.552C921.564 655.848 920.3 655.496 918.892 655.496C917.42 655.496 916.108 655.848 914.956 656.552C913.804 657.224 912.892 658.152 912.22 659.336C911.58 660.488 911.26 661.816 911.26 663.32C911.26 664.76 911.58 666.072 912.22 667.256C912.892 668.44 913.804 669.384 914.956 670.088C916.108 670.76 917.42 671.096 918.892 671.096Z" fill="#737373"/>
<path d="M938.106 677V651.032H943.529V677H938.106ZM938.106 647.48V641.24H943.529V647.48H938.106Z" fill="#737373"/>
<path d="M962.207 677.576C959.615 677.576 957.311 676.984 955.295 675.8C953.311 674.584 951.727 672.952 950.543 670.904C949.391 668.856 948.815 666.536 948.815 663.944C948.815 661.384 949.391 659.08 950.543 657.032C951.695 654.984 953.279 653.384 955.295 652.232C957.311 651.048 959.615 650.456 962.207 650.456C963.967 650.456 965.615 650.776 967.151 651.416C968.687 652.024 970.015 652.872 971.135 653.96C972.287 655.048 973.135 656.312 973.679 657.752L968.927 659.96C968.383 658.616 967.503 657.544 966.287 656.744C965.103 655.912 963.743 655.496 962.207 655.496C960.735 655.496 959.407 655.864 958.223 656.6C957.071 657.304 956.159 658.312 955.487 659.624C954.815 660.904 954.479 662.36 954.479 663.992C954.479 665.624 954.815 667.096 955.487 668.408C956.159 669.688 957.071 670.696 958.223 671.432C959.407 672.168 960.735 672.536 962.207 672.536C963.775 672.536 965.135 672.136 966.287 671.336C967.471 670.504 968.351 669.4 968.927 668.024L973.679 670.28C973.167 671.656 972.335 672.904 971.183 674.024C970.063 675.112 968.735 675.976 967.199 676.616C965.663 677.256 963.999 677.576 962.207 677.576Z" fill="#737373"/>
<path d="M994.571 677L984.731 641.24H990.731L998.699 672.2H997.211L1005.47 641.24H1011.37L1019.63 672.2H1018.09L1026.11 641.24H1032.06L1022.27 677H1015.88L1007.58 646.52H1009.26L1000.91 677H994.571Z" fill="#737373"/>
<path d="M1035.75 677V651.032H1041.17V677H1035.75ZM1035.75 647.48V641.24H1041.17V647.48H1035.75Z" fill="#737373"/>
<path d="M1058.74 677.288C1056.02 677.288 1053.91 676.52 1052.41 674.984C1050.9 673.448 1050.15 671.288 1050.15 668.504V655.928H1045.59V651.032H1046.31C1047.53 651.032 1048.47 650.68 1049.14 649.976C1049.82 649.272 1050.15 648.312 1050.15 647.096V645.08H1055.58V651.032H1061.48V655.928H1055.58V668.264C1055.58 669.16 1055.72 669.928 1056.01 670.568C1056.3 671.176 1056.76 671.656 1057.4 672.008C1058.04 672.328 1058.87 672.488 1059.9 672.488C1060.15 672.488 1060.44 672.472 1060.76 672.44C1061.08 672.408 1061.38 672.376 1061.67 672.344V677C1061.22 677.064 1060.73 677.128 1060.18 677.192C1059.64 677.256 1059.16 677.288 1058.74 677.288Z" fill="#737373"/>
<path d="M1066.96 677V640.664H1072.39V656.12L1071.52 655.448C1072.16 653.816 1073.19 652.584 1074.6 651.752C1076 650.888 1077.64 650.456 1079.49 650.456C1081.41 650.456 1083.11 650.872 1084.58 651.704C1086.05 652.536 1087.2 653.688 1088.04 655.16C1088.87 656.632 1089.28 658.312 1089.28 660.2V677H1083.91V661.688C1083.91 660.376 1083.65 659.272 1083.14 658.376C1082.66 657.448 1081.99 656.744 1081.12 656.264C1080.26 655.752 1079.27 655.496 1078.15 655.496C1077.06 655.496 1076.07 655.752 1075.17 656.264C1074.31 656.744 1073.62 657.448 1073.11 658.376C1072.63 659.304 1072.39 660.408 1072.39 661.688V677H1066.96Z" fill="#737373"/>
<path d="M1102.42 677V671.72H1104.49C1106.09 671.72 1107.37 671.256 1108.33 670.328C1109.29 669.368 1109.77 668.088 1109.77 666.488V641.24H1115.38V666.296C1115.38 668.472 1114.94 670.36 1114.04 671.96C1113.18 673.56 1111.91 674.808 1110.25 675.704C1108.62 676.568 1106.7 677 1104.49 677H1102.42Z" fill="#737373"/>
<path d="M1135.24 677.576C1133 677.576 1130.92 677.16 1129 676.328C1127.08 675.464 1125.45 674.296 1124.1 672.824C1122.76 671.352 1121.77 669.656 1121.13 667.736L1125.93 665.72C1126.79 667.928 1128.06 669.624 1129.72 670.808C1131.38 671.992 1133.3 672.584 1135.48 672.584C1136.76 672.584 1137.88 672.392 1138.84 672.008C1139.8 671.592 1140.54 671.016 1141.05 670.28C1141.59 669.544 1141.86 668.696 1141.86 667.736C1141.86 666.424 1141.5 665.384 1140.76 664.616C1140.02 663.848 1138.94 663.24 1137.5 662.792L1130.78 660.68C1128.09 659.848 1126.04 658.584 1124.63 656.888C1123.22 655.16 1122.52 653.144 1122.52 650.84C1122.52 648.824 1123.02 647.064 1124.01 645.56C1125 644.024 1126.36 642.824 1128.09 641.96C1129.85 641.096 1131.85 640.664 1134.09 640.664C1136.23 640.664 1138.18 641.048 1139.94 641.816C1141.7 642.552 1143.21 643.576 1144.46 644.888C1145.74 646.2 1146.66 647.72 1147.24 649.448L1142.54 651.512C1141.83 649.624 1140.73 648.168 1139.22 647.144C1137.75 646.12 1136.04 645.608 1134.09 645.608C1132.9 645.608 1131.86 645.816 1130.97 646.232C1130.07 646.616 1129.37 647.192 1128.86 647.96C1128.38 648.696 1128.14 649.56 1128.14 650.552C1128.14 651.704 1128.5 652.728 1129.24 653.624C1129.98 654.52 1131.1 655.192 1132.6 655.64L1138.84 657.608C1141.69 658.472 1143.83 659.72 1145.27 661.352C1146.71 662.952 1147.43 664.952 1147.43 667.352C1147.43 669.336 1146.9 671.096 1145.85 672.632C1144.82 674.168 1143.4 675.384 1141.58 676.28C1139.75 677.144 1137.64 677.576 1135.24 677.576Z" fill="#737373"/>
<path d="M1171.17 677.576C1168.57 677.576 1166.16 677.112 1163.92 676.184C1161.71 675.256 1159.76 673.96 1158.06 672.296C1156.4 670.632 1155.09 668.68 1154.13 666.44C1153.2 664.2 1152.73 661.752 1152.73 659.096C1152.73 656.44 1153.2 653.992 1154.13 651.752C1155.09 649.48 1156.4 647.528 1158.06 645.896C1159.73 644.232 1161.68 642.952 1163.92 642.056C1166.16 641.128 1168.57 640.664 1171.17 640.664C1173.79 640.664 1176.21 641.128 1178.41 642.056C1180.65 642.952 1182.61 644.232 1184.27 645.896C1185.97 647.56 1187.28 649.512 1188.21 651.752C1189.13 653.992 1189.6 656.44 1189.6 659.096C1189.6 661.752 1189.12 664.2 1188.16 666.44C1187.23 668.68 1185.93 670.632 1184.27 672.296C1182.61 673.96 1180.65 675.256 1178.41 676.184C1176.17 677.112 1173.76 677.576 1171.17 677.576ZM1171.17 672.392C1173.02 672.392 1174.72 672.056 1176.25 671.384C1177.82 670.712 1179.18 669.784 1180.33 668.6C1181.49 667.384 1182.38 665.976 1183.02 664.376C1183.66 662.744 1183.98 660.984 1183.98 659.096C1183.98 657.208 1183.66 655.464 1183.02 653.864C1182.38 652.264 1181.49 650.856 1180.33 649.64C1179.18 648.424 1177.82 647.48 1176.25 646.808C1174.72 646.136 1173.02 645.8 1171.17 645.8C1169.31 645.8 1167.6 646.136 1166.03 646.808C1164.49 647.48 1163.15 648.424 1162 649.64C1160.85 650.856 1159.95 652.264 1159.31 653.864C1158.7 655.464 1158.4 657.208 1158.4 659.096C1158.4 660.984 1158.7 662.744 1159.31 664.376C1159.95 665.976 1160.85 667.384 1162 668.6C1163.15 669.784 1164.51 670.712 1166.08 671.384C1167.65 672.056 1169.34 672.392 1171.17 672.392Z" fill="#737373"/>
<path d="M1195.93 677V641.24H1200.49L1220.55 668.936L1218.39 669.272V641.24H1224.01V677H1219.45L1199.53 649.112L1201.59 648.728V677H1195.93Z" fill="#737373"/>
<path d="M1232.28 684.056V681.416C1233.33 681.16 1234.15 680.664 1234.73 679.928C1235.3 679.224 1235.65 678.248 1235.78 677H1233.24V670.76H1238.76V674.84C1238.76 677.4 1238.21 679.464 1237.13 681.032C1236.04 682.6 1234.42 683.608 1232.28 684.056Z" fill="#737373"/>
<path d="M1268.95 677.576C1266.29 677.576 1263.92 677.016 1261.84 675.896C1259.8 674.776 1258.18 673.24 1257 671.288C1255.84 669.336 1255.27 667.112 1255.27 664.616V641.24H1260.93V664.376C1260.93 665.944 1261.27 667.336 1261.94 668.552C1262.64 669.768 1263.59 670.712 1264.77 671.384C1265.99 672.056 1267.38 672.392 1268.95 672.392C1270.55 672.392 1271.94 672.056 1273.12 671.384C1274.34 670.712 1275.28 669.768 1275.96 668.552C1276.66 667.336 1277.01 665.944 1277.01 664.376V641.24H1282.63V664.616C1282.63 667.112 1282.05 669.336 1280.9 671.288C1279.75 673.24 1278.13 674.776 1276.05 675.896C1274 677.016 1271.64 677.576 1268.95 677.576Z" fill="#737373"/>
<path d="M1289.2 677V651.032H1294.38V656.12L1293.76 655.448C1294.4 653.816 1295.42 652.584 1296.83 651.752C1298.24 650.888 1299.87 650.456 1301.73 650.456C1303.65 650.456 1305.34 650.872 1306.82 651.704C1308.29 652.536 1309.44 653.688 1310.27 655.16C1311.1 656.632 1311.52 658.328 1311.52 660.248V677H1306.14V661.688C1306.14 660.376 1305.9 659.272 1305.42 658.376C1304.94 657.448 1304.26 656.744 1303.36 656.264C1302.5 655.752 1301.5 655.496 1300.38 655.496C1299.26 655.496 1298.26 655.752 1297.36 656.264C1296.5 656.744 1295.82 657.448 1295.34 658.376C1294.86 659.304 1294.62 660.408 1294.62 661.688V677H1289.2Z" fill="#737373"/>
<path d="M1317.32 677V640.664H1322.75V677H1317.32Z" fill="#737373"/>
<path d="M1341.62 677.576C1339.12 677.576 1336.83 676.984 1334.75 675.8C1332.71 674.616 1331.07 673 1329.86 670.952C1328.64 668.904 1328.03 666.584 1328.03 663.992C1328.03 661.368 1328.64 659.048 1329.86 657.032C1331.07 654.984 1332.71 653.384 1334.75 652.232C1336.8 651.048 1339.09 650.456 1341.62 650.456C1344.18 650.456 1346.47 651.048 1348.48 652.232C1350.53 653.384 1352.15 654.984 1353.33 657.032C1354.55 659.048 1355.15 661.368 1355.15 663.992C1355.15 666.616 1354.55 668.952 1353.33 671C1352.11 673.048 1350.48 674.664 1348.43 675.848C1346.39 677 1344.11 677.576 1341.62 677.576ZM1341.62 672.536C1343.15 672.536 1344.51 672.168 1345.7 671.432C1346.88 670.696 1347.81 669.688 1348.48 668.408C1349.19 667.096 1349.54 665.624 1349.54 663.992C1349.54 662.36 1349.19 660.904 1348.48 659.624C1347.81 658.344 1346.88 657.336 1345.7 656.6C1344.51 655.864 1343.15 655.496 1341.62 655.496C1340.11 655.496 1338.75 655.864 1337.54 656.6C1336.35 657.336 1335.41 658.344 1334.71 659.624C1334.03 660.904 1333.7 662.36 1333.7 663.992C1333.7 665.624 1334.03 667.096 1334.71 668.408C1335.41 669.688 1336.35 670.696 1337.54 671.432C1338.75 672.168 1340.11 672.536 1341.62 672.536Z" fill="#737373"/>
<path d="M1372.79 677.576C1370.19 677.576 1367.89 676.984 1365.87 675.8C1363.89 674.584 1362.31 672.952 1361.12 670.904C1359.97 668.856 1359.39 666.536 1359.39 663.944C1359.39 661.384 1359.97 659.08 1361.12 657.032C1362.27 654.984 1363.86 653.384 1365.87 652.232C1367.89 651.048 1370.19 650.456 1372.79 650.456C1374.55 650.456 1376.19 650.776 1377.73 651.416C1379.27 652.024 1380.59 652.872 1381.71 653.96C1382.87 655.048 1383.71 656.312 1384.26 657.752L1379.51 659.96C1378.96 658.616 1378.08 657.544 1376.87 656.744C1375.68 655.912 1374.32 655.496 1372.79 655.496C1371.31 655.496 1369.99 655.864 1368.8 656.6C1367.65 657.304 1366.74 658.312 1366.07 659.624C1365.39 660.904 1365.06 662.36 1365.06 663.992C1365.06 665.624 1365.39 667.096 1366.07 668.408C1366.74 669.688 1367.65 670.696 1368.8 671.432C1369.99 672.168 1371.31 672.536 1372.79 672.536C1374.35 672.536 1375.71 672.136 1376.87 671.336C1378.05 670.504 1378.93 669.4 1379.51 668.024L1384.26 670.28C1383.75 671.656 1382.91 672.904 1381.76 674.024C1380.64 675.112 1379.31 675.976 1377.78 676.616C1376.24 677.256 1374.58 677.576 1372.79 677.576Z" fill="#737373"/>
<path d="M1389.56 677V640.664H1394.98V665L1392.87 664.472L1405.88 651.032H1412.65L1402.85 661.448L1413.08 677H1406.84L1397.72 663.224L1400.93 662.792L1393.25 670.952L1394.98 667.352V677H1389.56Z" fill="#737373"/>
<path d="M1416.79 677V651.032H1422.22V677H1416.79ZM1416.79 647.48V641.24H1422.22V647.48H1416.79Z" fill="#737373"/>
<path d="M1428.56 677V651.032H1433.74V656.12L1433.12 655.448C1433.76 653.816 1434.78 652.584 1436.19 651.752C1437.6 650.888 1439.23 650.456 1441.09 650.456C1443.01 650.456 1444.7 650.872 1446.17 651.704C1447.65 652.536 1448.8 653.688 1449.63 655.16C1450.46 656.632 1450.88 658.328 1450.88 660.248V677H1445.5V661.688C1445.5 660.376 1445.26 659.272 1444.78 658.376C1444.3 657.448 1443.61 656.744 1442.72 656.264C1441.85 655.752 1440.86 655.496 1439.74 655.496C1438.62 655.496 1437.61 655.752 1436.72 656.264C1435.85 656.744 1435.18 657.448 1434.7 658.376C1434.22 659.304 1433.98 660.408 1433.98 661.688V677H1428.56Z" fill="#737373"/>
<path d="M1469.21 687.56C1467.32 687.56 1465.58 687.256 1463.98 686.648C1462.38 686.04 1461 685.192 1459.85 684.104C1458.7 683.048 1457.84 681.8 1457.26 680.36L1462.25 678.296C1462.7 679.512 1463.52 680.52 1464.7 681.32C1465.92 682.12 1467.4 682.52 1469.16 682.52C1470.54 682.52 1471.77 682.248 1472.86 681.704C1473.95 681.192 1474.81 680.424 1475.45 679.4C1476.09 678.408 1476.41 677.208 1476.41 675.8V669.944L1477.37 671.048C1476.48 672.712 1475.23 673.976 1473.63 674.84C1472.06 675.704 1470.28 676.136 1468.3 676.136C1465.9 676.136 1463.74 675.576 1461.82 674.456C1459.9 673.336 1458.38 671.8 1457.26 669.848C1456.17 667.896 1455.63 665.704 1455.63 663.272C1455.63 660.808 1456.17 658.616 1457.26 656.696C1458.38 654.776 1459.88 653.256 1461.77 652.136C1463.66 651.016 1465.82 650.456 1468.25 650.456C1470.24 650.456 1472 650.888 1473.53 651.752C1475.1 652.584 1476.38 653.8 1477.37 655.4L1476.65 656.744V651.032H1481.79V675.8C1481.79 678.04 1481.24 680.04 1480.16 681.8C1479.1 683.592 1477.63 685 1475.74 686.024C1473.85 687.048 1471.68 687.56 1469.21 687.56ZM1468.92 671.096C1470.36 671.096 1471.64 670.76 1472.76 670.088C1473.88 669.384 1474.76 668.456 1475.4 667.304C1476.08 666.12 1476.41 664.792 1476.41 663.32C1476.41 661.848 1476.08 660.52 1475.4 659.336C1474.73 658.152 1473.84 657.224 1472.72 656.552C1471.6 655.848 1470.33 655.496 1468.92 655.496C1467.45 655.496 1466.14 655.848 1464.99 656.552C1463.84 657.224 1462.92 658.152 1462.25 659.336C1461.61 660.488 1461.29 661.816 1461.29 663.32C1461.29 664.76 1461.61 666.072 1462.25 667.256C1462.92 668.44 1463.84 669.384 1464.99 670.088C1466.14 670.76 1467.45 671.096 1468.92 671.096Z" fill="#737373"/>
<path d="M1497.06 677V641.24H1501.62L1521.68 668.936L1519.52 669.272V641.24H1525.14V677H1520.58L1500.66 649.112L1502.72 648.728V677H1497.06Z" fill="#737373"/>
<path d="M1544.2 677.576C1541.61 677.576 1539.31 676.984 1537.29 675.8C1535.31 674.584 1533.76 672.952 1532.64 670.904C1531.52 668.824 1530.96 666.504 1530.96 663.944C1530.96 661.32 1531.52 659 1532.64 656.984C1533.79 654.968 1535.32 653.384 1537.24 652.232C1539.16 651.048 1541.34 650.456 1543.77 650.456C1545.72 650.456 1547.47 650.792 1549 651.464C1550.54 652.136 1551.84 653.064 1552.89 654.248C1553.95 655.4 1554.75 656.728 1555.29 658.232C1555.87 659.736 1556.16 661.336 1556.16 663.032C1556.16 663.448 1556.14 663.88 1556.11 664.328C1556.08 664.776 1556.01 665.192 1555.92 665.576H1535.23V661.256H1552.84L1550.25 663.224C1550.57 661.656 1550.46 660.264 1549.92 659.048C1549.4 657.8 1548.6 656.824 1547.52 656.12C1546.46 655.384 1545.21 655.016 1543.77 655.016C1542.33 655.016 1541.05 655.384 1539.93 656.12C1538.81 656.824 1537.95 657.848 1537.34 659.192C1536.73 660.504 1536.49 662.104 1536.62 663.992C1536.46 665.752 1536.7 667.288 1537.34 668.6C1538.01 669.912 1538.94 670.936 1540.12 671.672C1541.34 672.408 1542.72 672.776 1544.25 672.776C1545.82 672.776 1547.15 672.424 1548.24 671.72C1549.36 671.016 1550.24 670.104 1550.88 668.984L1555.29 671.144C1554.78 672.36 1553.98 673.464 1552.89 674.456C1551.84 675.416 1550.56 676.184 1549.05 676.76C1547.58 677.304 1545.96 677.576 1544.2 677.576Z" fill="#737373"/>
<path d="M1567.74 677L1558.81 651.032H1564.57L1571.39 671.72H1569.37L1576.33 651.032H1581.27L1588.19 671.72H1586.17L1593.03 651.032H1598.79L1589.82 677H1584.92L1577.91 655.832H1579.69L1572.68 677H1567.74Z" fill="#737373"/>
<path d="M1611.43 677V641.24H1624.44C1626.84 641.24 1628.95 641.688 1630.77 642.584C1632.63 643.448 1634.07 644.728 1635.09 646.424C1636.12 648.088 1636.63 650.088 1636.63 652.424C1636.63 654.728 1636.1 656.712 1635.05 658.376C1634.02 660.04 1632.6 661.32 1630.77 662.216C1628.95 663.112 1626.84 663.56 1624.44 663.56H1617.09V677H1611.43ZM1617.09 658.52H1624.58C1625.86 658.52 1626.98 658.264 1627.94 657.752C1628.9 657.24 1629.65 656.536 1630.2 655.64C1630.74 654.712 1631.01 653.624 1631.01 652.376C1631.01 651.128 1630.74 650.056 1630.2 649.16C1629.65 648.232 1628.9 647.528 1627.94 647.048C1626.98 646.536 1625.86 646.28 1624.58 646.28H1617.09V658.52Z" fill="#737373"/>
<path d="M1653.52 677.576C1651.03 677.576 1648.74 676.984 1646.66 675.8C1644.61 674.616 1642.98 673 1641.76 670.952C1640.55 668.904 1639.94 666.584 1639.94 663.992C1639.94 661.368 1640.55 659.048 1641.76 657.032C1642.98 654.984 1644.61 653.384 1646.66 652.232C1648.71 651.048 1651 650.456 1653.52 650.456C1656.08 650.456 1658.37 651.048 1660.39 652.232C1662.44 653.384 1664.05 654.984 1665.24 657.032C1666.45 659.048 1667.06 661.368 1667.06 663.992C1667.06 666.616 1666.45 668.952 1665.24 671C1664.02 673.048 1662.39 674.664 1660.34 675.848C1658.29 677 1656.02 677.576 1653.52 677.576ZM1653.52 672.536C1655.06 672.536 1656.42 672.168 1657.6 671.432C1658.79 670.696 1659.72 669.688 1660.39 668.408C1661.09 667.096 1661.44 665.624 1661.44 663.992C1661.44 662.36 1661.09 660.904 1660.39 659.624C1659.72 658.344 1658.79 657.336 1657.6 656.6C1656.42 655.864 1655.06 655.496 1653.52 655.496C1652.02 655.496 1650.66 655.864 1649.44 656.6C1648.26 657.336 1647.32 658.344 1646.61 659.624C1645.94 660.904 1645.6 662.36 1645.6 663.992C1645.6 665.624 1645.94 667.096 1646.61 668.408C1647.32 669.688 1648.26 670.696 1649.44 671.432C1650.66 672.168 1652.02 672.536 1653.52 672.536Z" fill="#737373"/>
<path d="M1681.96 677.576C1679.3 677.576 1676.96 676.92 1674.95 675.608C1672.96 674.296 1671.57 672.536 1670.77 670.328L1674.95 668.36C1675.65 669.832 1676.61 671 1677.83 671.864C1679.08 672.728 1680.45 673.16 1681.96 673.16C1683.24 673.16 1684.28 672.872 1685.08 672.296C1685.88 671.72 1686.28 670.936 1686.28 669.944C1686.28 669.304 1686.1 668.792 1685.75 668.408C1685.4 667.992 1684.95 667.656 1684.4 667.4C1683.89 667.144 1683.36 666.952 1682.82 666.824L1678.74 665.672C1676.5 665.032 1674.82 664.072 1673.7 662.792C1672.61 661.48 1672.07 659.96 1672.07 658.232C1672.07 656.664 1672.47 655.304 1673.27 654.152C1674.07 652.968 1675.17 652.056 1676.58 651.416C1677.99 650.776 1679.57 650.456 1681.33 650.456C1683.7 650.456 1685.81 651.048 1687.67 652.232C1689.52 653.384 1690.84 655 1691.6 657.08L1687.43 659.048C1686.92 657.8 1686.1 656.808 1684.98 656.072C1683.89 655.336 1682.66 654.968 1681.28 654.968C1680.1 654.968 1679.16 655.256 1678.45 655.832C1677.75 656.376 1677.4 657.096 1677.4 657.992C1677.4 658.6 1677.56 659.112 1677.88 659.528C1678.2 659.912 1678.61 660.232 1679.12 660.488C1679.64 660.712 1680.16 660.904 1680.71 661.064L1684.93 662.312C1687.08 662.92 1688.72 663.88 1689.88 665.192C1691.03 666.472 1691.6 668.008 1691.6 669.8C1691.6 671.336 1691.19 672.696 1690.36 673.88C1689.56 675.032 1688.44 675.944 1687 676.616C1685.56 677.256 1683.88 677.576 1681.96 677.576Z" fill="#737373"/>
<path d="M1706.52 677.576C1703.86 677.576 1701.53 676.92 1699.51 675.608C1697.53 674.296 1696.13 672.536 1695.33 670.328L1699.51 668.36C1700.21 669.832 1701.17 671 1702.39 671.864C1703.64 672.728 1705.01 673.16 1706.52 673.16C1707.8 673.16 1708.84 672.872 1709.64 672.296C1710.44 671.72 1710.84 670.936 1710.84 669.944C1710.84 669.304 1710.66 668.792 1710.31 668.408C1709.96 667.992 1709.51 667.656 1708.97 667.4C1708.45 667.144 1707.93 666.952 1707.38 666.824L1703.3 665.672C1701.06 665.032 1699.38 664.072 1698.26 662.792C1697.17 661.48 1696.63 659.96 1696.63 658.232C1696.63 656.664 1697.03 655.304 1697.83 654.152C1698.63 652.968 1699.73 652.056 1701.14 651.416C1702.55 650.776 1704.13 650.456 1705.89 650.456C1708.26 650.456 1710.37 651.048 1712.23 652.232C1714.09 653.384 1715.4 655 1716.17 657.08L1711.99 659.048C1711.48 657.8 1710.66 656.808 1709.54 656.072C1708.45 655.336 1707.22 654.968 1705.85 654.968C1704.66 654.968 1703.72 655.256 1703.01 655.832C1702.31 656.376 1701.96 657.096 1701.96 657.992C1701.96 658.6 1702.12 659.112 1702.44 659.528C1702.76 659.912 1703.17 660.232 1703.69 660.488C1704.2 660.712 1704.73 660.904 1705.27 661.064L1709.49 662.312C1711.64 662.92 1713.29 663.88 1714.44 665.192C1715.59 666.472 1716.17 668.008 1716.17 669.8C1716.17 671.336 1715.75 672.696 1714.92 673.88C1714.12 675.032 1713 675.944 1711.56 676.616C1710.12 677.256 1708.44 677.576 1706.52 677.576Z" fill="#737373"/>
<path d="M1721.48 677V651.032H1726.9V677H1721.48ZM1721.48 647.48V641.24H1726.9V647.48H1721.48Z" fill="#737373"/>
<path d="M1747.12 677.576C1745.1 677.576 1743.26 677.16 1741.6 676.328C1739.97 675.496 1738.7 674.296 1737.81 672.728L1738.43 671.72V677H1733.25V640.664H1738.67V656.408L1737.81 655.16C1738.77 653.688 1740.05 652.536 1741.65 651.704C1743.25 650.872 1745.07 650.456 1747.12 650.456C1749.58 650.456 1751.79 651.048 1753.74 652.232C1755.73 653.416 1757.28 655.032 1758.4 657.08C1759.55 659.128 1760.13 661.432 1760.13 663.992C1760.13 666.552 1759.55 668.856 1758.4 670.904C1757.28 672.952 1755.74 674.584 1753.79 675.8C1751.84 676.984 1749.61 677.576 1747.12 677.576ZM1746.59 672.536C1748.13 672.536 1749.49 672.168 1750.67 671.432C1751.85 670.696 1752.78 669.688 1753.45 668.408C1754.16 667.096 1754.51 665.624 1754.51 663.992C1754.51 662.36 1754.16 660.904 1753.45 659.624C1752.78 658.344 1751.85 657.336 1750.67 656.6C1749.49 655.864 1748.13 655.496 1746.59 655.496C1745.09 655.496 1743.73 655.864 1742.51 656.6C1741.33 657.336 1740.38 658.344 1739.68 659.624C1739.01 660.904 1738.67 662.36 1738.67 663.992C1738.67 665.624 1739.01 667.096 1739.68 668.408C1740.38 669.688 1741.33 670.696 1742.51 671.432C1743.73 672.168 1745.09 672.536 1746.59 672.536Z" fill="#737373"/>
<path d="M1765.4 677V651.032H1770.83V677H1765.4ZM1765.4 647.48V641.24H1770.83V647.48H1765.4Z" fill="#737373"/>
<path d="M1777.17 677V640.664H1782.59V677H1777.17Z" fill="#737373"/>
<path d="M1788.93 677V651.032H1794.36V677H1788.93ZM1788.93 647.48V641.24H1794.36V647.48H1788.93Z" fill="#737373"/>
<path d="M1811.93 677.288C1809.21 677.288 1807.1 676.52 1805.6 674.984C1804.09 673.448 1803.34 671.288 1803.34 668.504V655.928H1798.78V651.032H1799.5C1800.72 651.032 1801.66 650.68 1802.33 649.976C1803 649.272 1803.34 648.312 1803.34 647.096V645.08H1808.76V651.032H1814.67V655.928H1808.76V668.264C1808.76 669.16 1808.91 669.928 1809.2 670.568C1809.48 671.176 1809.95 671.656 1810.59 672.008C1811.23 672.328 1812.06 672.488 1813.08 672.488C1813.34 672.488 1813.63 672.472 1813.95 672.44C1814.27 672.408 1814.57 672.376 1814.86 672.344V677C1814.41 677.064 1813.92 677.128 1813.37 677.192C1812.83 677.256 1812.35 677.288 1811.93 677.288Z" fill="#737373"/>
<path d="M1820.15 677V651.032H1825.58V677H1820.15ZM1820.15 647.48V641.24H1825.58V647.48H1820.15Z" fill="#737373"/>
<path d="M1844.11 677.576C1841.52 677.576 1839.21 676.984 1837.2 675.8C1835.21 674.584 1833.66 672.952 1832.54 670.904C1831.42 668.824 1830.86 666.504 1830.86 663.944C1830.86 661.32 1831.42 659 1832.54 656.984C1833.69 654.968 1835.23 653.384 1837.15 652.232C1839.07 651.048 1841.25 650.456 1843.68 650.456C1845.63 650.456 1847.37 650.792 1848.91 651.464C1850.45 652.136 1851.74 653.064 1852.8 654.248C1853.85 655.4 1854.65 656.728 1855.2 658.232C1855.77 659.736 1856.06 661.336 1856.06 663.032C1856.06 663.448 1856.05 663.88 1856.01 664.328C1855.98 664.776 1855.92 665.192 1855.82 665.576H1835.13V661.256H1852.75L1850.16 663.224C1850.48 661.656 1850.37 660.264 1849.82 659.048C1849.31 657.8 1848.51 656.824 1847.42 656.12C1846.37 655.384 1845.12 655.016 1843.68 655.016C1842.24 655.016 1840.96 655.384 1839.84 656.12C1838.72 656.824 1837.85 657.848 1837.25 659.192C1836.64 660.504 1836.4 662.104 1836.53 663.992C1836.37 665.752 1836.61 667.288 1837.25 668.6C1837.92 669.912 1838.85 670.936 1840.03 671.672C1841.25 672.408 1842.62 672.776 1844.16 672.776C1845.73 672.776 1847.05 672.424 1848.14 671.72C1849.26 671.016 1850.14 670.104 1850.78 668.984L1855.2 671.144C1854.69 672.36 1853.89 673.464 1852.8 674.456C1851.74 675.416 1850.46 676.184 1848.96 676.76C1847.49 677.304 1845.87 677.576 1844.11 677.576Z" fill="#737373"/>
<path d="M1870.96 677.576C1868.3 677.576 1865.96 676.92 1863.95 675.608C1861.96 674.296 1860.57 672.536 1859.77 670.328L1863.95 668.36C1864.65 669.832 1865.61 671 1866.83 671.864C1868.08 672.728 1869.45 673.16 1870.96 673.16C1872.24 673.16 1873.28 672.872 1874.08 672.296C1874.88 671.72 1875.28 670.936 1875.28 669.944C1875.28 669.304 1875.1 668.792 1874.75 668.408C1874.4 667.992 1873.95 667.656 1873.4 667.4C1872.89 667.144 1872.36 666.952 1871.82 666.824L1867.74 665.672C1865.5 665.032 1863.82 664.072 1862.7 662.792C1861.61 661.48 1861.07 659.96 1861.07 658.232C1861.07 656.664 1861.47 655.304 1862.27 654.152C1863.07 652.968 1864.17 652.056 1865.58 651.416C1866.99 650.776 1868.57 650.456 1870.33 650.456C1872.7 650.456 1874.81 651.048 1876.67 652.232C1878.52 653.384 1879.84 655 1880.6 657.08L1876.43 659.048C1875.92 657.8 1875.1 656.808 1873.98 656.072C1872.89 655.336 1871.66 654.968 1870.28 654.968C1869.1 654.968 1868.16 655.256 1867.45 655.832C1866.75 656.376 1866.4 657.096 1866.4 657.992C1866.4 658.6 1866.56 659.112 1866.88 659.528C1867.2 659.912 1867.61 660.232 1868.12 660.488C1868.64 660.712 1869.16 660.904 1869.71 661.064L1873.93 662.312C1876.08 662.92 1877.72 663.88 1878.88 665.192C1880.03 666.472 1880.6 668.008 1880.6 669.8C1880.6 671.336 1880.19 672.696 1879.36 673.88C1878.56 675.032 1877.44 675.944 1876 676.616C1874.56 677.256 1872.88 677.576 1870.96 677.576Z" fill="#737373"/>
</svg>
