<svg width="2044" height="1082" viewBox="0 0 2044 1082" fill="none" xmlns="http://www.w3.org/2000/svg">
<rect x="250" y="24" width="1600" height="900" fill="black"/>
<path d="M690.071 537.384C688.386 537.384 686.839 537.085 685.431 536.488C684.023 535.869 682.796 535.016 681.751 533.928C680.727 532.819 679.927 531.517 679.351 530.024C678.775 528.531 678.487 526.888 678.487 525.096C678.487 523.304 678.775 521.661 679.351 520.168C679.927 518.675 680.727 517.373 681.751 516.264C682.796 515.155 684.023 514.301 685.431 513.704C686.839 513.085 688.386 512.776 690.071 512.776C691.692 512.776 693.143 513.064 694.423 513.64C695.724 514.216 696.812 514.963 697.687 515.88C698.583 516.776 699.223 517.725 699.607 518.728L697.207 519.784C696.61 518.397 695.692 517.288 694.455 516.456C693.239 515.603 691.778 515.176 690.071 515.176C688.322 515.176 686.764 515.592 685.399 516.424C684.034 517.256 682.967 518.419 682.199 519.912C681.431 521.384 681.047 523.112 681.047 525.096C681.047 527.059 681.431 528.787 682.199 530.28C682.967 531.773 684.034 532.936 685.399 533.768C686.764 534.579 688.322 534.984 690.071 534.984C691.778 534.984 693.239 534.568 694.455 533.736C695.692 532.904 696.61 531.795 697.207 530.408L699.607 531.464C699.223 532.445 698.583 533.395 697.687 534.312C696.812 535.208 695.724 535.944 694.423 536.52C693.143 537.096 691.692 537.384 690.071 537.384ZM703.519 537V519.848H705.919V522.664L705.599 522.248C706.004 521.437 706.612 520.797 707.423 520.328C708.255 519.859 709.258 519.624 710.431 519.624H711.519V522.024H710.015C708.778 522.024 707.786 522.408 707.039 523.176C706.292 523.944 705.919 525.032 705.919 526.44V537H703.519ZM721.82 537.384C720.22 537.384 718.769 537 717.468 536.232C716.188 535.443 715.174 534.365 714.428 533C713.681 531.635 713.308 530.088 713.308 528.36C713.308 526.632 713.67 525.107 714.396 523.784C715.121 522.44 716.102 521.384 717.34 520.616C718.598 519.848 720.006 519.464 721.564 519.464C722.801 519.464 723.9 519.699 724.86 520.168C725.841 520.616 726.673 521.235 727.356 522.024C728.038 522.792 728.561 523.667 728.924 524.648C729.286 525.608 729.468 526.6 729.468 527.624C729.468 527.837 729.457 528.083 729.436 528.36C729.414 528.616 729.382 528.883 729.34 529.16H714.844V526.92H727.964L726.812 527.88C727.004 526.707 726.865 525.661 726.396 524.744C725.948 523.805 725.297 523.069 724.444 522.536C723.59 521.981 722.63 521.704 721.564 521.704C720.497 521.704 719.505 521.981 718.588 522.536C717.692 523.091 716.988 523.869 716.476 524.872C715.964 525.853 715.761 527.027 715.868 528.392C715.761 529.757 715.974 530.952 716.508 531.976C717.062 532.979 717.809 533.757 718.748 534.312C719.708 534.867 720.732 535.144 721.82 535.144C723.078 535.144 724.134 534.845 724.988 534.248C725.841 533.651 726.534 532.904 727.068 532.008L729.116 533.096C728.774 533.864 728.252 534.579 727.548 535.24C726.844 535.88 726.001 536.403 725.02 536.808C724.06 537.192 722.993 537.384 721.82 537.384ZM738.027 537.384C736.939 537.384 735.968 537.181 735.115 536.776C734.261 536.349 733.589 535.773 733.099 535.048C732.608 534.323 732.363 533.491 732.363 532.552C732.363 531.656 732.555 530.845 732.939 530.12C733.323 529.373 733.92 528.744 734.731 528.232C735.541 527.72 736.576 527.357 737.835 527.144L744.555 526.024V528.2L738.411 529.224C737.173 529.437 736.277 529.832 735.723 530.408C735.189 530.984 734.923 531.667 734.923 532.456C734.923 533.224 735.221 533.875 735.819 534.408C736.437 534.941 737.227 535.208 738.187 535.208C739.36 535.208 740.384 534.963 741.259 534.472C742.133 533.96 742.816 533.277 743.307 532.424C743.797 531.571 744.043 530.621 744.043 529.576V525.224C744.043 524.2 743.669 523.368 742.923 522.728C742.176 522.088 741.205 521.768 740.011 521.768C738.965 521.768 738.048 522.035 737.259 522.568C736.469 523.08 735.883 523.752 735.499 524.584L733.323 523.4C733.643 522.675 734.144 522.013 734.827 521.416C735.531 520.819 736.331 520.349 737.227 520.008C738.123 519.645 739.051 519.464 740.011 519.464C741.269 519.464 742.379 519.709 743.339 520.2C744.32 520.691 745.077 521.373 745.611 522.248C746.165 523.101 746.443 524.093 746.443 525.224V537H744.043V533.576L744.395 533.928C744.096 534.568 743.627 535.155 742.987 535.688C742.368 536.2 741.632 536.616 740.779 536.936C739.947 537.235 739.029 537.384 738.027 537.384ZM757.307 537.192C755.771 537.192 754.587 536.744 753.755 535.848C752.923 534.952 752.507 533.672 752.507 532.008V522.248H749.339V519.848H750.139C750.864 519.848 751.44 519.613 751.867 519.144C752.293 518.653 752.507 518.045 752.507 517.32V515.88H754.907V519.848H758.683V522.248H754.907V532.008C754.907 532.584 754.992 533.096 755.163 533.544C755.333 533.971 755.621 534.312 756.027 534.568C756.453 534.824 757.019 534.952 757.723 534.952C757.893 534.952 758.096 534.941 758.331 534.92C758.565 534.899 758.768 534.877 758.939 534.856V537C758.683 537.064 758.395 537.107 758.075 537.128C757.755 537.171 757.499 537.192 757.307 537.192ZM770.016 537.384C768.416 537.384 766.965 537 765.664 536.232C764.384 535.443 763.37 534.365 762.624 533C761.877 531.635 761.504 530.088 761.504 528.36C761.504 526.632 761.866 525.107 762.592 523.784C763.317 522.44 764.298 521.384 765.536 520.616C766.794 519.848 768.202 519.464 769.76 519.464C770.997 519.464 772.096 519.699 773.056 520.168C774.037 520.616 774.869 521.235 775.552 522.024C776.234 522.792 776.757 523.667 777.12 524.648C777.482 525.608 777.664 526.6 777.664 527.624C777.664 527.837 777.653 528.083 777.632 528.36C777.61 528.616 777.578 528.883 777.536 529.16H763.04V526.92H776.16L775.008 527.88C775.2 526.707 775.061 525.661 774.592 524.744C774.144 523.805 773.493 523.069 772.64 522.536C771.786 521.981 770.826 521.704 769.76 521.704C768.693 521.704 767.701 521.981 766.784 522.536C765.888 523.091 765.184 523.869 764.672 524.872C764.16 525.853 763.957 527.027 764.064 528.392C763.957 529.757 764.17 530.952 764.704 531.976C765.258 532.979 766.005 533.757 766.944 534.312C767.904 534.867 768.928 535.144 770.016 535.144C771.274 535.144 772.33 534.845 773.184 534.248C774.037 533.651 774.73 532.904 775.264 532.008L777.312 533.096C776.97 533.864 776.448 534.579 775.744 535.24C775.04 535.88 774.197 536.403 773.216 536.808C772.256 537.192 771.189 537.384 770.016 537.384ZM786.693 537V512.776H789.093V537H786.693ZM801.717 537.384C800.096 537.384 798.624 537 797.301 536.232C795.979 535.443 794.923 534.376 794.133 533.032C793.365 531.667 792.981 530.12 792.981 528.392C792.981 526.685 793.365 525.16 794.133 523.816C794.901 522.472 795.936 521.416 797.237 520.648C798.56 519.859 800.053 519.464 801.717 519.464C803.381 519.464 804.864 519.848 806.165 520.616C807.488 521.384 808.523 522.44 809.269 523.784C810.037 525.128 810.421 526.664 810.421 528.392C810.421 530.141 810.027 531.699 809.237 533.064C808.448 534.408 807.392 535.464 806.069 536.232C804.768 537 803.317 537.384 801.717 537.384ZM801.717 534.984C802.869 534.984 803.904 534.696 804.821 534.12C805.76 533.544 806.496 532.755 807.029 531.752C807.584 530.749 807.861 529.629 807.861 528.392C807.861 527.155 807.584 526.045 807.029 525.064C806.496 524.083 805.76 523.304 804.821 522.728C803.904 522.152 802.869 521.864 801.717 521.864C800.565 521.864 799.52 522.152 798.581 522.728C797.664 523.304 796.928 524.083 796.373 525.064C795.819 526.045 795.541 527.155 795.541 528.392C795.541 529.629 795.819 530.749 796.373 531.752C796.928 532.755 797.664 533.544 798.581 534.12C799.52 534.696 800.565 534.984 801.717 534.984ZM822.462 544.04C821.289 544.04 820.201 543.859 819.198 543.496C818.217 543.133 817.363 542.632 816.638 541.992C815.934 541.373 815.39 540.648 815.006 539.816L817.214 538.632C817.555 539.443 818.163 540.147 819.038 540.744C819.913 541.341 821.033 541.64 822.398 541.64C823.443 541.64 824.403 541.437 825.278 541.032C826.153 540.627 826.857 540.029 827.39 539.24C827.923 538.451 828.19 537.48 828.19 536.328V532.52L828.574 532.872C827.977 534.109 827.091 535.069 825.918 535.752C824.745 536.413 823.465 536.744 822.078 536.744C820.478 536.744 819.038 536.36 817.758 535.592C816.478 534.824 815.465 533.789 814.718 532.488C813.993 531.165 813.63 529.704 813.63 528.104C813.63 526.483 813.993 525.021 814.718 523.72C815.465 522.419 816.467 521.384 817.726 520.616C819.006 519.848 820.457 519.464 822.078 519.464C823.465 519.464 824.723 519.784 825.854 520.424C827.006 521.064 827.913 521.928 828.574 523.016L828.19 523.688V519.848H830.59V536.328C830.59 537.8 830.238 539.112 829.534 540.264C828.851 541.437 827.891 542.355 826.654 543.016C825.438 543.699 824.041 544.04 822.462 544.04ZM822.206 534.344C823.315 534.344 824.318 534.067 825.214 533.512C826.11 532.936 826.825 532.179 827.358 531.24C827.913 530.28 828.19 529.235 828.19 528.104C828.19 526.973 827.913 525.939 827.358 525C826.825 524.04 826.11 523.283 825.214 522.728C824.318 522.152 823.315 521.864 822.206 521.864C821.075 521.864 820.051 522.152 819.134 522.728C818.217 523.283 817.491 524.029 816.958 524.968C816.446 525.907 816.19 526.952 816.19 528.104C816.19 529.235 816.446 530.28 816.958 531.24C817.491 532.179 818.206 532.936 819.102 533.512C820.019 534.067 821.054 534.344 822.206 534.344ZM835.202 537V519.848H837.602V537H835.202ZM835.202 516.68V513.16H837.602V516.68H835.202ZM850.034 537.384C848.349 537.384 846.866 536.989 845.586 536.2C844.306 535.411 843.303 534.344 842.578 533C841.853 531.635 841.49 530.099 841.49 528.392C841.49 526.685 841.853 525.16 842.578 523.816C843.303 522.472 844.306 521.416 845.586 520.648C846.866 519.859 848.349 519.464 850.034 519.464C851.101 519.464 852.103 519.656 853.042 520.04C853.981 520.424 854.813 520.947 855.538 521.608C856.263 522.248 856.807 522.995 857.17 523.848L854.994 524.968C854.567 524.051 853.917 523.304 853.042 522.728C852.167 522.152 851.165 521.864 850.034 521.864C848.903 521.864 847.879 522.152 846.962 522.728C846.066 523.283 845.351 524.061 844.818 525.064C844.306 526.045 844.05 527.165 844.05 528.424C844.05 529.661 844.306 530.781 844.818 531.784C845.351 532.765 846.066 533.544 846.962 534.12C847.879 534.696 848.903 534.984 850.034 534.984C851.165 534.984 852.157 534.696 853.01 534.12C853.885 533.544 854.546 532.776 854.994 531.816L857.17 533C856.807 533.832 856.263 534.579 855.538 535.24C854.813 535.901 853.981 536.424 853.042 536.808C852.103 537.192 851.101 537.384 850.034 537.384ZM869.955 537L864.067 519.848H866.787L871.651 534.856H870.691L875.267 519.848H877.667L882.243 534.856H881.283L886.179 519.848H888.867L882.979 537H880.579L876.131 522.312H876.803L872.355 537H869.955ZM891.359 537V519.848H893.759V537H891.359ZM891.359 516.68V513.16H893.759V516.68H891.359ZM904.911 537.192C903.375 537.192 902.191 536.744 901.359 535.848C900.527 534.952 900.111 533.672 900.111 532.008V522.248H896.943V519.848H897.743C898.469 519.848 899.045 519.613 899.471 519.144C899.898 518.653 900.111 518.045 900.111 517.32V515.88H902.511V519.848H906.287V522.248H902.511V532.008C902.511 532.584 902.597 533.096 902.767 533.544C902.938 533.971 903.226 534.312 903.631 534.568C904.058 534.824 904.623 534.952 905.327 534.952C905.498 534.952 905.701 534.941 905.935 534.92C906.17 534.899 906.373 534.877 906.543 534.856V537C906.287 537.064 905.999 537.107 905.679 537.128C905.359 537.171 905.103 537.192 904.911 537.192ZM910.438 537V512.776H912.838V523.176L912.294 523.048C912.72 521.939 913.414 521.064 914.374 520.424C915.355 519.784 916.486 519.464 917.766 519.464C918.982 519.464 920.07 519.741 921.03 520.296C922.011 520.851 922.779 521.619 923.334 522.6C923.91 523.56 924.198 524.648 924.198 525.864V537H921.798V526.792C921.798 525.747 921.606 524.861 921.222 524.136C920.838 523.411 920.304 522.856 919.622 522.472C918.96 522.067 918.203 521.864 917.35 521.864C916.496 521.864 915.728 522.067 915.046 522.472C914.363 522.856 913.819 523.421 913.414 524.168C913.03 524.893 912.838 525.768 912.838 526.792V537H910.438ZM932.875 537V534.44H934.155C935.35 534.44 936.288 534.088 936.971 533.384C937.654 532.659 937.995 531.677 937.995 530.44V513.16H940.555V530.44C940.555 531.784 940.288 532.947 939.755 533.928C939.243 534.909 938.507 535.667 937.547 536.2C936.587 536.733 935.456 537 934.155 537H932.875ZM953.893 537.384C952.378 537.384 951.002 537.096 949.765 536.52C948.528 535.944 947.482 535.176 946.629 534.216C945.776 533.235 945.168 532.157 944.805 530.984L947.109 530.12C947.664 531.741 948.528 532.979 949.701 533.832C950.874 534.664 952.272 535.08 953.893 535.08C954.917 535.08 955.813 534.92 956.581 534.6C957.37 534.259 957.978 533.789 958.405 533.192C958.832 532.595 959.045 531.901 959.045 531.112C959.045 529.939 958.725 529.032 958.085 528.392C957.445 527.752 956.528 527.261 955.333 526.92L951.045 525.64C949.36 525.149 948.058 524.328 947.141 523.176C946.245 522.024 945.797 520.712 945.797 519.24C945.797 517.981 946.106 516.872 946.725 515.912C947.344 514.931 948.186 514.163 949.253 513.608C950.341 513.053 951.568 512.776 952.933 512.776C954.362 512.776 955.642 513.043 956.773 513.576C957.925 514.088 958.896 514.771 959.685 515.624C960.474 516.477 961.04 517.427 961.381 518.472L959.141 519.368C958.629 517.96 957.829 516.893 956.741 516.168C955.674 515.443 954.416 515.08 952.965 515.08C952.048 515.08 951.237 515.24 950.533 515.56C949.85 515.88 949.317 516.339 948.933 516.936C948.549 517.533 948.357 518.237 948.357 519.048C948.357 520.029 948.666 520.915 949.285 521.704C949.904 522.472 950.853 523.048 952.133 523.432L955.909 524.552C957.786 525.107 959.205 525.907 960.165 526.952C961.125 527.997 961.605 529.309 961.605 530.888C961.605 532.168 961.274 533.299 960.613 534.28C959.973 535.24 959.066 535.997 957.893 536.552C956.741 537.107 955.408 537.384 953.893 537.384ZM977.461 537.384C975.797 537.384 974.239 537.085 972.789 536.488C971.359 535.869 970.101 535.016 969.013 533.928C967.925 532.819 967.071 531.517 966.453 530.024C965.834 528.509 965.525 526.856 965.525 525.064C965.525 523.272 965.834 521.629 966.453 520.136C967.071 518.621 967.925 517.32 969.013 516.232C970.101 515.123 971.359 514.269 972.789 513.672C974.239 513.075 975.797 512.776 977.461 512.776C979.125 512.776 980.671 513.085 982.101 513.704C983.551 514.301 984.821 515.155 985.909 516.264C986.997 517.352 987.85 518.643 988.469 520.136C989.087 521.629 989.397 523.272 989.397 525.064C989.397 526.856 989.087 528.509 988.469 530.024C987.85 531.517 986.997 532.819 985.909 533.928C984.821 535.016 983.551 535.869 982.101 536.488C980.671 537.085 979.125 537.384 977.461 537.384ZM977.461 534.984C978.847 534.984 980.106 534.728 981.237 534.216C982.389 533.704 983.381 532.989 984.213 532.072C985.045 531.155 985.685 530.099 986.133 528.904C986.602 527.709 986.837 526.429 986.837 525.064C986.837 523.72 986.602 522.451 986.133 521.256C985.685 520.061 985.045 519.005 984.213 518.088C983.381 517.171 982.389 516.456 981.237 515.944C980.106 515.432 978.847 515.176 977.461 515.176C976.074 515.176 974.805 515.432 973.653 515.944C972.522 516.456 971.541 517.171 970.709 518.088C969.877 519.005 969.226 520.061 968.757 521.256C968.309 522.451 968.085 523.72 968.085 525.064C968.085 526.429 968.309 527.709 968.757 528.904C969.226 530.099 969.877 531.155 970.709 532.072C971.541 532.989 972.533 533.704 973.685 534.216C974.837 534.728 976.095 534.984 977.461 534.984ZM994.002 537V513.16H996.242L1010.23 533.224H1009.36V513.16H1011.92V537H1009.68L995.698 516.808H996.562V537H994.002ZM1016.99 541.16V540.04C1017.63 539.869 1018.1 539.539 1018.4 539.048C1018.7 538.557 1018.84 537.875 1018.84 537H1017.63V533.48H1020.19V536.168C1020.19 537.555 1019.92 538.664 1019.39 539.496C1018.86 540.349 1018.06 540.904 1016.99 541.16ZM1036.4 537.384C1035.2 537.384 1034.11 537.107 1033.13 536.552C1032.15 535.976 1031.37 535.187 1030.8 534.184C1030.24 533.16 1029.96 531.987 1029.96 530.664V519.848H1032.36V530.376C1032.36 531.293 1032.54 532.104 1032.91 532.808C1033.29 533.491 1033.81 534.024 1034.48 534.408C1035.16 534.792 1035.94 534.984 1036.81 534.984C1037.69 534.984 1038.46 534.792 1039.15 534.408C1039.83 534.003 1040.36 533.437 1040.75 532.712C1041.13 531.965 1041.32 531.08 1041.32 530.056V519.848H1043.72V537H1041.32V533.672L1041.87 533.8C1041.46 534.909 1040.77 535.784 1039.79 536.424C1038.81 537.064 1037.68 537.384 1036.4 537.384ZM1048.34 537V519.848H1050.74V523.176L1050.2 523.048C1050.62 521.939 1051.32 521.064 1052.28 520.424C1053.26 519.784 1054.39 519.464 1055.67 519.464C1056.88 519.464 1057.97 519.741 1058.93 520.296C1059.91 520.851 1060.68 521.619 1061.24 522.6C1061.81 523.56 1062.1 524.648 1062.1 525.864V537H1059.7V526.792C1059.7 525.747 1059.51 524.861 1059.12 524.136C1058.76 523.411 1058.24 522.856 1057.56 522.472C1056.89 522.067 1056.13 521.864 1055.25 521.864C1054.38 521.864 1053.6 522.067 1052.92 522.472C1052.23 522.856 1051.7 523.421 1051.32 524.168C1050.93 524.893 1050.74 525.768 1050.74 526.792V537H1048.34ZM1066.36 537V512.776H1068.76V537H1066.36ZM1081.39 537.384C1079.77 537.384 1078.29 537 1076.97 536.232C1075.65 535.443 1074.59 534.376 1073.8 533.032C1073.04 531.667 1072.65 530.12 1072.65 528.392C1072.65 526.685 1073.04 525.16 1073.8 523.816C1074.57 522.472 1075.61 521.416 1076.91 520.648C1078.23 519.859 1079.72 519.464 1081.39 519.464C1083.05 519.464 1084.53 519.848 1085.84 520.616C1087.16 521.384 1088.19 522.44 1088.94 523.784C1089.71 525.128 1090.09 526.664 1090.09 528.392C1090.09 530.141 1089.7 531.699 1088.91 533.064C1088.12 534.408 1087.06 535.464 1085.74 536.232C1084.44 537 1082.99 537.384 1081.39 537.384ZM1081.39 534.984C1082.54 534.984 1083.57 534.696 1084.49 534.12C1085.43 533.544 1086.17 532.755 1086.7 531.752C1087.25 530.749 1087.53 529.629 1087.53 528.392C1087.53 527.155 1087.25 526.045 1086.7 525.064C1086.17 524.083 1085.43 523.304 1084.49 522.728C1083.57 522.152 1082.54 521.864 1081.39 521.864C1080.24 521.864 1079.19 522.152 1078.25 522.728C1077.33 523.304 1076.6 524.083 1076.04 525.064C1075.49 526.045 1075.21 527.155 1075.21 528.392C1075.21 529.629 1075.49 530.749 1076.04 531.752C1076.6 532.755 1077.33 533.544 1078.25 534.12C1079.19 534.696 1080.24 534.984 1081.39 534.984ZM1101.84 537.384C1100.16 537.384 1098.68 536.989 1097.4 536.2C1096.12 535.411 1095.11 534.344 1094.39 533C1093.66 531.635 1093.3 530.099 1093.3 528.392C1093.3 526.685 1093.66 525.16 1094.39 523.816C1095.11 522.472 1096.12 521.416 1097.4 520.648C1098.68 519.859 1100.16 519.464 1101.84 519.464C1102.91 519.464 1103.91 519.656 1104.85 520.04C1105.79 520.424 1106.62 520.947 1107.35 521.608C1108.07 522.248 1108.62 522.995 1108.98 523.848L1106.8 524.968C1106.38 524.051 1105.73 523.304 1104.85 522.728C1103.98 522.152 1102.97 521.864 1101.84 521.864C1100.71 521.864 1099.69 522.152 1098.77 522.728C1097.88 523.283 1097.16 524.061 1096.63 525.064C1096.12 526.045 1095.86 527.165 1095.86 528.424C1095.86 529.661 1096.12 530.781 1096.63 531.784C1097.16 532.765 1097.88 533.544 1098.77 534.12C1099.69 534.696 1100.71 534.984 1101.84 534.984C1102.97 534.984 1103.97 534.696 1104.82 534.12C1105.69 533.544 1106.36 532.776 1106.8 531.816L1108.98 533C1108.62 533.832 1108.07 534.579 1107.35 535.24C1106.62 535.901 1105.79 536.424 1104.85 536.808C1103.91 537.192 1102.91 537.384 1101.84 537.384ZM1112.87 537V512.776H1115.27V529.736L1114.25 529.576L1123.88 519.848H1126.98L1120.26 526.728L1127.59 537H1124.71L1117.83 527.496L1119.37 527.624L1114.47 532.68L1115.27 530.696V537H1112.87ZM1130.08 537V519.848H1132.48V537H1130.08ZM1130.08 516.68V513.16H1132.48V516.68H1130.08ZM1137.08 537V519.848H1139.48V523.176L1138.93 523.048C1139.36 521.939 1140.05 521.064 1141.01 520.424C1141.99 519.784 1143.12 519.464 1144.4 519.464C1145.62 519.464 1146.71 519.741 1147.67 520.296C1148.65 520.851 1149.42 521.619 1149.97 522.6C1150.55 523.56 1150.84 524.648 1150.84 525.864V537H1148.44V526.792C1148.44 525.747 1148.24 524.861 1147.86 524.136C1147.5 523.411 1146.97 522.856 1146.29 522.472C1145.63 522.067 1144.86 521.864 1143.99 521.864C1143.11 521.864 1142.33 522.067 1141.65 522.472C1140.97 522.856 1140.44 523.421 1140.05 524.168C1139.67 524.893 1139.48 525.768 1139.48 526.792V537H1137.08ZM1163.23 544.04C1162.05 544.04 1160.97 543.859 1159.96 543.496C1158.98 543.133 1158.13 542.632 1157.4 541.992C1156.7 541.373 1156.16 540.648 1155.77 539.816L1157.98 538.632C1158.32 539.443 1158.93 540.147 1159.8 540.744C1160.68 541.341 1161.8 541.64 1163.16 541.64C1164.21 541.64 1165.17 541.437 1166.04 541.032C1166.92 540.627 1167.62 540.029 1168.16 539.24C1168.69 538.451 1168.96 537.48 1168.96 536.328V532.52L1169.34 532.872C1168.74 534.109 1167.86 535.069 1166.68 535.752C1165.51 536.413 1164.23 536.744 1162.84 536.744C1161.24 536.744 1159.8 536.36 1158.52 535.592C1157.24 534.824 1156.23 533.789 1155.48 532.488C1154.76 531.165 1154.4 529.704 1154.4 528.104C1154.4 526.483 1154.76 525.021 1155.48 523.72C1156.23 522.419 1157.23 521.384 1158.49 520.616C1159.77 519.848 1161.22 519.464 1162.84 519.464C1164.23 519.464 1165.49 519.784 1166.62 520.424C1167.77 521.064 1168.68 521.928 1169.34 523.016L1168.96 523.688V519.848H1171.36V536.328C1171.36 537.8 1171 539.112 1170.3 540.264C1169.62 541.437 1168.66 542.355 1167.42 543.016C1166.2 543.699 1164.81 544.04 1163.23 544.04ZM1162.97 534.344C1164.08 534.344 1165.08 534.067 1165.98 533.512C1166.88 532.936 1167.59 532.179 1168.12 531.24C1168.68 530.28 1168.96 529.235 1168.96 528.104C1168.96 526.973 1168.68 525.939 1168.12 525C1167.59 524.04 1166.88 523.283 1165.98 522.728C1165.08 522.152 1164.08 521.864 1162.97 521.864C1161.84 521.864 1160.82 522.152 1159.9 522.728C1158.98 523.283 1158.26 524.029 1157.72 524.968C1157.21 525.907 1156.96 526.952 1156.96 528.104C1156.96 529.235 1157.21 530.28 1157.72 531.24C1158.26 532.179 1158.97 532.936 1159.87 533.512C1160.78 534.067 1161.82 534.344 1162.97 534.344ZM1181.08 537V519.848H1183.48V523.176L1182.94 523.048C1183.37 521.939 1184.06 521.064 1185.02 520.424C1186 519.784 1187.13 519.464 1188.41 519.464C1189.63 519.464 1190.72 519.741 1191.68 520.296C1192.66 520.851 1193.43 521.619 1193.98 522.6C1194.56 523.56 1194.84 524.648 1194.84 525.864V537H1192.44V526.792C1192.44 525.747 1192.25 524.861 1191.87 524.136C1191.51 523.411 1190.98 522.856 1190.3 522.472C1189.64 522.067 1188.87 521.864 1188 521.864C1187.12 521.864 1186.34 522.067 1185.66 522.472C1184.98 522.856 1184.44 523.421 1184.06 524.168C1183.68 524.893 1183.48 525.768 1183.48 526.792V537H1181.08ZM1206.92 537.384C1205.32 537.384 1203.87 537 1202.56 536.232C1201.28 535.443 1200.27 534.365 1199.52 533C1198.78 531.635 1198.4 530.088 1198.4 528.36C1198.4 526.632 1198.77 525.107 1199.49 523.784C1200.22 522.44 1201.2 521.384 1202.44 520.616C1203.69 519.848 1205.1 519.464 1206.66 519.464C1207.9 519.464 1209 519.699 1209.96 520.168C1210.94 520.616 1211.77 521.235 1212.45 522.024C1213.13 522.792 1213.66 523.667 1214.02 524.648C1214.38 525.608 1214.56 526.6 1214.56 527.624C1214.56 527.837 1214.55 528.083 1214.53 528.36C1214.51 528.616 1214.48 528.883 1214.44 529.16H1199.94V526.92H1213.06L1211.91 527.88C1212.1 526.707 1211.96 525.661 1211.49 524.744C1211.04 523.805 1210.39 523.069 1209.54 522.536C1208.69 521.981 1207.73 521.704 1206.66 521.704C1205.59 521.704 1204.6 521.981 1203.68 522.536C1202.79 523.091 1202.08 523.869 1201.57 524.872C1201.06 525.853 1200.86 527.027 1200.96 528.392C1200.86 529.757 1201.07 530.952 1201.6 531.976C1202.16 532.979 1202.91 533.757 1203.84 534.312C1204.8 534.867 1205.83 535.144 1206.92 535.144C1208.17 535.144 1209.23 534.845 1210.08 534.248C1210.94 533.651 1211.63 532.904 1212.16 532.008L1214.21 533.096C1213.87 533.864 1213.35 534.579 1212.64 535.24C1211.94 535.88 1211.1 536.403 1210.12 536.808C1209.16 537.192 1208.09 537.384 1206.92 537.384ZM1222.25 537L1216.36 519.848H1219.08L1223.95 534.856H1222.99L1227.56 519.848H1229.96L1234.54 534.856H1233.58L1238.48 519.848H1241.16L1235.28 537H1232.88L1228.43 522.312H1229.1L1224.65 537H1222.25ZM1248.77 543.4V519.848H1251.17V523.688L1250.79 523.016C1251.47 521.928 1252.38 521.064 1253.51 520.424C1254.66 519.784 1255.97 519.464 1257.44 519.464C1259.07 519.464 1260.51 519.859 1261.76 520.648C1263.04 521.416 1264.05 522.472 1264.77 523.816C1265.52 525.16 1265.89 526.696 1265.89 528.424C1265.89 530.131 1265.52 531.667 1264.77 533.032C1264.05 534.376 1263.04 535.443 1261.76 536.232C1260.51 537 1259.07 537.384 1257.44 537.384C1255.97 537.384 1254.64 537.053 1253.44 536.392C1252.27 535.709 1251.39 534.749 1250.79 533.512L1251.17 533.16V543.4H1248.77ZM1257.32 534.984C1258.47 534.984 1259.49 534.696 1260.39 534.12C1261.31 533.544 1262.02 532.765 1262.53 531.784C1263.07 530.781 1263.33 529.661 1263.33 528.424C1263.33 527.165 1263.07 526.045 1262.53 525.064C1262.02 524.083 1261.31 523.304 1260.39 522.728C1259.49 522.152 1258.47 521.864 1257.32 521.864C1256.16 521.864 1255.12 522.152 1254.18 522.728C1253.26 523.304 1252.53 524.093 1251.97 525.096C1251.44 526.077 1251.17 527.187 1251.17 528.424C1251.17 529.661 1251.44 530.781 1251.97 531.784C1252.53 532.765 1253.26 533.544 1254.18 534.12C1255.12 534.696 1256.16 534.984 1257.32 534.984ZM1277.83 537.384C1276.21 537.384 1274.74 537 1273.41 536.232C1272.09 535.443 1271.03 534.376 1270.24 533.032C1269.48 531.667 1269.09 530.12 1269.09 528.392C1269.09 526.685 1269.48 525.16 1270.24 523.816C1271.01 522.472 1272.05 521.416 1273.35 520.648C1274.67 519.859 1276.16 519.464 1277.83 519.464C1279.49 519.464 1280.98 519.848 1282.28 520.616C1283.6 521.384 1284.63 522.44 1285.38 523.784C1286.15 525.128 1286.53 526.664 1286.53 528.392C1286.53 530.141 1286.14 531.699 1285.35 533.064C1284.56 534.408 1283.5 535.464 1282.18 536.232C1280.88 537 1279.43 537.384 1277.83 537.384ZM1277.83 534.984C1278.98 534.984 1280.02 534.696 1280.93 534.12C1281.87 533.544 1282.61 532.755 1283.14 531.752C1283.7 530.749 1283.97 529.629 1283.97 528.392C1283.97 527.155 1283.7 526.045 1283.14 525.064C1282.61 524.083 1281.87 523.304 1280.93 522.728C1280.02 522.152 1278.98 521.864 1277.83 521.864C1276.68 521.864 1275.63 522.152 1274.69 522.728C1273.78 523.304 1273.04 524.083 1272.48 525.064C1271.93 526.045 1271.65 527.155 1271.65 528.392C1271.65 529.629 1271.93 530.749 1272.48 531.752C1273.04 532.755 1273.78 533.544 1274.69 534.12C1275.63 534.696 1276.68 534.984 1277.83 534.984ZM1296.4 537.384C1294.75 537.384 1293.31 536.968 1292.08 536.136C1290.84 535.304 1289.94 534.173 1289.39 532.744L1291.41 531.784C1291.9 532.829 1292.58 533.661 1293.45 534.28C1294.35 534.899 1295.33 535.208 1296.4 535.208C1297.42 535.208 1298.29 534.963 1298.99 534.472C1299.69 533.96 1300.05 533.299 1300.05 532.488C1300.05 531.891 1299.87 531.421 1299.53 531.08C1299.19 530.717 1298.8 530.44 1298.35 530.248C1297.9 530.056 1297.51 529.917 1297.17 529.832L1294.7 529.128C1293.12 528.68 1291.98 528.051 1291.28 527.24C1290.57 526.429 1290.22 525.491 1290.22 524.424C1290.22 523.421 1290.48 522.547 1290.99 521.8C1291.5 521.053 1292.19 520.477 1293.07 520.072C1293.94 519.667 1294.91 519.464 1295.98 519.464C1297.43 519.464 1298.74 519.848 1299.92 520.616C1301.11 521.363 1301.95 522.408 1302.45 523.752L1300.4 524.712C1299.97 523.752 1299.35 523.005 1298.54 522.472C1297.75 521.917 1296.87 521.64 1295.89 521.64C1294.93 521.64 1294.16 521.885 1293.58 522.376C1293.01 522.867 1292.72 523.485 1292.72 524.232C1292.72 524.808 1292.87 525.267 1293.17 525.608C1293.46 525.949 1293.81 526.205 1294.19 526.376C1294.59 526.547 1294.95 526.675 1295.25 526.76L1298.09 527.592C1299.48 527.997 1300.56 528.627 1301.33 529.48C1302.11 530.333 1302.51 531.336 1302.51 532.488C1302.51 533.427 1302.24 534.269 1301.71 535.016C1301.2 535.763 1300.48 536.349 1299.57 536.776C1298.65 537.181 1297.59 537.384 1296.4 537.384ZM1312.36 537.384C1310.72 537.384 1309.28 536.968 1308.04 536.136C1306.8 535.304 1305.91 534.173 1305.35 532.744L1307.37 531.784C1307.86 532.829 1308.54 533.661 1309.41 534.28C1310.31 534.899 1311.29 535.208 1312.36 535.208C1313.38 535.208 1314.25 534.963 1314.95 534.472C1315.65 533.96 1316.01 533.299 1316.01 532.488C1316.01 531.891 1315.84 531.421 1315.49 531.08C1315.15 530.717 1314.76 530.44 1314.31 530.248C1313.86 530.056 1313.47 529.917 1313.13 529.832L1310.66 529.128C1309.08 528.68 1307.94 528.051 1307.24 527.24C1306.53 526.429 1306.18 525.491 1306.18 524.424C1306.18 523.421 1306.44 522.547 1306.95 521.8C1307.46 521.053 1308.16 520.477 1309.03 520.072C1309.91 519.667 1310.88 519.464 1311.94 519.464C1313.39 519.464 1314.71 519.848 1315.88 520.616C1317.07 521.363 1317.92 522.408 1318.41 523.752L1316.36 524.712C1315.93 523.752 1315.31 523.005 1314.5 522.472C1313.71 521.917 1312.83 521.64 1311.85 521.64C1310.89 521.64 1310.12 521.885 1309.54 522.376C1308.97 522.867 1308.68 523.485 1308.68 524.232C1308.68 524.808 1308.83 525.267 1309.13 525.608C1309.43 525.949 1309.77 526.205 1310.15 526.376C1310.56 526.547 1310.91 526.675 1311.21 526.76L1314.05 527.592C1315.44 527.997 1316.52 528.627 1317.29 529.48C1318.08 530.333 1318.47 531.336 1318.47 532.488C1318.47 533.427 1318.2 534.269 1317.67 535.016C1317.16 535.763 1316.44 536.349 1315.53 536.776C1314.61 537.181 1313.55 537.384 1312.36 537.384ZM1322.37 537V519.848H1324.77V537H1322.37ZM1322.37 516.68V513.16H1324.77V516.68H1322.37ZM1338.03 537.384C1336.56 537.384 1335.23 537.053 1334.03 536.392C1332.86 535.709 1331.97 534.749 1331.38 533.512L1331.76 533.16V537H1329.36V512.776H1331.76V523.688L1331.38 523.016C1332.06 521.928 1332.97 521.064 1334.1 520.424C1335.25 519.784 1336.56 519.464 1338.03 519.464C1339.65 519.464 1341.09 519.859 1342.35 520.648C1343.63 521.416 1344.63 522.472 1345.36 523.816C1346.11 525.16 1346.48 526.696 1346.48 528.424C1346.48 530.131 1346.11 531.667 1345.36 533.032C1344.63 534.376 1343.63 535.443 1342.35 536.232C1341.09 537 1339.65 537.384 1338.03 537.384ZM1337.9 534.984C1339.06 534.984 1340.08 534.696 1340.98 534.12C1341.89 533.544 1342.61 532.765 1343.12 531.784C1343.65 530.781 1343.92 529.661 1343.92 528.424C1343.92 527.165 1343.65 526.045 1343.12 525.064C1342.61 524.083 1341.89 523.304 1340.98 522.728C1340.08 522.152 1339.06 521.864 1337.9 521.864C1336.75 521.864 1335.71 522.152 1334.77 522.728C1333.85 523.304 1333.11 524.093 1332.56 525.096C1332.03 526.077 1331.76 527.187 1331.76 528.424C1331.76 529.661 1332.03 530.781 1332.56 531.784C1333.11 532.765 1333.85 533.544 1334.77 534.12C1335.71 534.696 1336.75 534.984 1337.9 534.984ZM1350.38 537V519.848H1352.78V537H1350.38ZM1350.38 516.68V513.16H1352.78V516.68H1350.38ZM1357.38 537V512.776H1359.78V537H1357.38ZM1364.37 537V519.848H1366.77V537H1364.37ZM1364.37 516.68V513.16H1366.77V516.68H1364.37ZM1377.92 537.192C1376.39 537.192 1375.2 536.744 1374.37 535.848C1373.54 534.952 1373.12 533.672 1373.12 532.008V522.248H1369.95V519.848H1370.75C1371.48 519.848 1372.05 519.613 1372.48 519.144C1372.91 518.653 1373.12 518.045 1373.12 517.32V515.88H1375.52V519.848H1379.3V522.248H1375.52V532.008C1375.52 532.584 1375.61 533.096 1375.78 533.544C1375.95 533.971 1376.24 534.312 1376.64 534.568C1377.07 534.824 1377.63 534.952 1378.34 534.952C1378.51 534.952 1378.71 534.941 1378.95 534.92C1379.18 534.899 1379.38 534.877 1379.55 534.856V537C1379.3 537.064 1379.01 537.107 1378.69 537.128C1378.37 537.171 1378.11 537.192 1377.92 537.192ZM1383.45 537V519.848H1385.85V537H1383.45ZM1383.45 516.68V513.16H1385.85V516.68H1383.45ZM1398.25 537.384C1396.65 537.384 1395.2 537 1393.9 536.232C1392.62 535.443 1391.6 534.365 1390.86 533C1390.11 531.635 1389.74 530.088 1389.74 528.36C1389.74 526.632 1390.1 525.107 1390.82 523.784C1391.55 522.44 1392.53 521.384 1393.77 520.616C1395.03 519.848 1396.43 519.464 1397.99 519.464C1399.23 519.464 1400.33 519.699 1401.29 520.168C1402.27 520.616 1403.1 521.235 1403.78 522.024C1404.47 522.792 1404.99 523.667 1405.35 524.648C1405.71 525.608 1405.9 526.6 1405.9 527.624C1405.9 527.837 1405.89 528.083 1405.86 528.36C1405.84 528.616 1405.81 528.883 1405.77 529.16H1391.27V526.92H1404.39L1403.24 527.88C1403.43 526.707 1403.29 525.661 1402.82 524.744C1402.38 523.805 1401.73 523.069 1400.87 522.536C1400.02 521.981 1399.06 521.704 1397.99 521.704C1396.93 521.704 1395.93 521.981 1395.02 522.536C1394.12 523.091 1393.42 523.869 1392.9 524.872C1392.39 525.853 1392.19 527.027 1392.3 528.392C1392.19 529.757 1392.4 530.952 1392.94 531.976C1393.49 532.979 1394.24 533.757 1395.18 534.312C1396.14 534.867 1397.16 535.144 1398.25 535.144C1399.51 535.144 1400.56 534.845 1401.42 534.248C1402.27 533.651 1402.96 532.904 1403.5 532.008L1405.54 533.096C1405.2 533.864 1404.68 534.579 1403.98 535.24C1403.27 535.88 1402.43 536.403 1401.45 536.808C1400.49 537.192 1399.42 537.384 1398.25 537.384ZM1415.76 537.384C1414.12 537.384 1412.68 536.968 1411.44 536.136C1410.2 535.304 1409.31 534.173 1408.75 532.744L1410.77 531.784C1411.26 532.829 1411.94 533.661 1412.82 534.28C1413.71 534.899 1414.69 535.208 1415.76 535.208C1416.78 535.208 1417.65 534.963 1418.35 534.472C1419.06 533.96 1419.41 533.299 1419.41 532.488C1419.41 531.891 1419.24 531.421 1418.9 531.08C1418.55 530.717 1418.16 530.44 1417.71 530.248C1417.26 530.056 1416.87 529.917 1416.53 529.832L1414.06 529.128C1412.49 528.68 1411.34 528.051 1410.64 527.24C1409.94 526.429 1409.58 525.491 1409.58 524.424C1409.58 523.421 1409.84 522.547 1410.35 521.8C1410.86 521.053 1411.56 520.477 1412.43 520.072C1413.31 519.667 1414.28 519.464 1415.34 519.464C1416.79 519.464 1418.11 519.848 1419.28 520.616C1420.47 521.363 1421.32 522.408 1421.81 523.752L1419.76 524.712C1419.33 523.752 1418.71 523.005 1417.9 522.472C1417.11 521.917 1416.23 521.64 1415.25 521.64C1414.29 521.64 1413.52 521.885 1412.94 522.376C1412.37 522.867 1412.08 523.485 1412.08 524.232C1412.08 524.808 1412.23 525.267 1412.53 525.608C1412.83 525.949 1413.17 526.205 1413.55 526.376C1413.96 526.547 1414.31 526.675 1414.61 526.76L1417.46 527.592C1418.84 527.997 1419.92 528.627 1420.69 529.48C1421.48 530.333 1421.87 531.336 1421.87 532.488C1421.87 533.427 1421.61 534.269 1421.07 535.016C1420.56 535.763 1419.85 536.349 1418.93 536.776C1418.01 537.181 1416.95 537.384 1415.76 537.384Z" fill="white"/>
<mask id="mask0_284_9646" style="mask-type:luminance" maskUnits="userSpaceOnUse" x="-195" y="0" width="2348" height="1082">
<path d="M2153 0H-195V1081.6H2153V0Z" fill="white"/>
</mask>
<g mask="url(#mask0_284_9646)">
<mask id="mask1_284_9646" style="mask-type:alpha" maskUnits="userSpaceOnUse" x="0" y="0" width="2380" height="1082">
<path d="M2379.92 0H0.666748V1081.6H2379.92V0Z" fill="url(#paint0_radial_284_9646)"/>
</mask>
<g mask="url(#mask1_284_9646)">
<path opacity="0.2" d="M352.571 1101.72C352.571 1101.72 335.947 511.944 1112.01 511.944C1888.07 511.944 2018.44 314.248 2018.44 314.248" stroke="#A399FF" stroke-width="0.981397"/>
<path opacity="0.2" d="M364.812 1139.77C364.812 1139.77 348.19 549.99 1124.25 549.99C1900.32 549.99 2030.68 352.294 2030.68 352.294" stroke="#A399FF" stroke-width="0.981397"/>
<path opacity="0.2" d="M377.055 1179.18C377.055 1179.18 360.431 589.396 1136.5 589.396C1912.56 589.396 2042.92 391.7 2042.92 391.7" stroke="#A399FF" stroke-width="0.981397"/>
<g filter="url(#filter0_d_284_9646)">
<path d="M2018.44 1086.05V274.584C2018.44 274.584 1888.07 472.281 1112.01 472.281C335.947 472.281 299.685 1062.06 299.685 1062.06V1086.05H2018.44Z" fill="#A399FF" fill-opacity="0.24"/>
</g>
<path d="M2017.32 277.226C2017.47 277.025 2017.62 276.836 2017.76 276.661V1085.37H300.364V1062.08V1062.08L300.37 1062C300.374 1061.93 300.381 1061.82 300.391 1061.68C300.412 1061.4 300.443 1060.98 300.489 1060.42C300.58 1059.31 300.73 1057.66 300.957 1055.51C301.411 1051.2 302.178 1044.87 303.43 1036.82C305.933 1020.72 310.376 997.707 318.131 970.091C333.64 914.856 362.395 841.21 415.375 767.566C521.311 620.314 724.18 472.96 1112.01 472.96C1500.09 472.96 1726.79 423.53 1856.49 374.067C1921.34 349.335 1961.95 324.593 1986.36 306.015C1998.56 296.726 2006.71 288.978 2011.82 283.544C2014.38 280.827 2016.16 278.689 2017.32 277.226Z" stroke="#A399FF" stroke-opacity="0.22" stroke-width="0.981397"/>
<path opacity="0.1" d="M246.799 1022.4C246.799 1022.4 335.947 432.616 1112.01 432.616C1888.07 432.616 2018.44 234.92 2018.44 234.92V1046.38" stroke="#A399FF" stroke-width="0.981397"/>
<path opacity="0.1" d="M193.913 982.732C193.913 982.732 335.947 392.951 1112.01 392.951C1888.07 392.951 2018.44 195.256 2018.44 195.256V1006.72" stroke="#A399FF" stroke-width="0.981397"/>
<path opacity="0.1" d="M141.028 943.067C141.028 943.067 335.947 353.287 1112.01 353.287C1888.07 353.287 2018.44 155.591 2018.44 155.591V967.055" stroke="#A399FF" stroke-width="0.981397"/>
<path d="M2017.32 118.569C2017.47 118.368 2017.62 118.18 2017.76 118.004V926.711H88.8213V903.541C88.8512 903.472 88.8933 903.373 88.949 903.245C89.0699 902.962 89.252 902.541 89.498 901.985C89.9885 900.874 90.7304 899.222 91.7305 897.065C93.732 892.754 96.7689 886.427 100.909 878.372C109.192 862.262 121.893 839.243 139.56 811.616C174.893 756.363 230.084 682.688 309.514 609.011C468.364 461.669 724.17 314.303 1112.01 314.303C1500.09 314.303 1726.79 264.873 1856.49 215.41C1921.34 190.678 1961.95 165.936 1986.36 147.358C1998.56 138.069 2006.71 130.322 2011.82 124.888C2014.38 122.171 2016.16 120.032 2017.32 118.569Z" stroke="#A399FF" stroke-opacity="0.08" stroke-width="0.981397"/>
<path opacity="0.12" d="M35.2563 863.738C35.2563 863.738 335.947 273.959 1112.01 273.959C1888.07 273.959 2018.44 76.2625 2018.44 76.2625V887.726" stroke="#A399FF" stroke-width="0.981397"/>
<path opacity="0.1" d="M-17.6293 824.075C-17.6293 824.075 335.947 234.295 1112.01 234.295C1888.07 234.295 2018.44 36.5991 2018.44 36.5991V848.063" stroke="#A399FF" stroke-width="0.981397"/>
<path d="M2018.44 808.398V-3.06567C2018.44 -3.06567 1888.07 194.631 1112.01 194.631C335.947 194.631 -70.5151 784.41 -70.5151 784.41V1087.7H2018.44V808.398Z" fill="#A399FF" fill-opacity="0.16"/>
<path d="M2017.32 -0.424242C2017.47 -0.625344 2017.62 -0.812858 2017.76 -0.989502V808.398V1087.02H-69.8357V784.623C-69.7895 784.558 -69.7311 784.474 -69.6604 784.372C-69.4634 784.09 -69.1672 783.668 -68.7718 783.112C-67.981 781.998 -66.7934 780.346 -65.2131 778.188C-62.0498 773.874 -57.309 767.544 -50.9987 759.487C-38.3782 743.371 -19.4801 720.347 5.62369 692.714C55.8312 637.448 130.858 563.758 230.129 490.066C428.668 342.684 724.161 195.31 1112.01 195.31C1500.09 195.31 1726.79 145.88 1856.49 96.4173C1921.34 71.6857 1961.95 46.9434 1986.36 28.3646C1998.56 19.0758 2006.71 11.328 2011.82 5.89415C2014.38 3.17792 2016.16 1.03918 2017.32 -0.424242Z" stroke="#A399FF" stroke-opacity="0.16" stroke-width="0.981397"/>
<path opacity="0.2" d="M-123.401 744.747C-123.401 744.747 335.947 154.967 1112.01 154.967C1888.07 154.967 2018.44 -42.7288 2018.44 -42.7288V768.735" stroke="#A399FF" stroke-width="0.981397"/>
<path opacity="0.2" d="M-176.287 705.082C-176.287 705.082 335.947 115.302 1112.01 115.302C1888.07 115.302 2018.44 -82.3933 2018.44 -82.3933V729.07" stroke="#A399FF" stroke-width="0.981397"/>
<path opacity="0.2" d="M-229.171 665.417C-229.171 665.417 335.947 75.6373 1112.01 75.6373C1888.07 75.6373 2018.44 -122.058 2018.44 -122.058" stroke="#A399FF" stroke-width="0.981397"/>
</g>
</g>
<path d="M1160.72 455.818V443.704H1172.15V455.818H1160.72Z" fill="#6366f1"/>
<path d="M950.52 456.712C945.816 456.712 941.7 455.648 938.172 453.52C934.644 451.392 931.9 448.508 929.94 444.868C927.98 441.228 927 437.196 927 432.772C927 428.18 927.98 424.12 929.94 420.592C931.956 417.008 934.672 414.18 938.088 412.108C941.56 410.036 945.424 409 949.68 409C953.264 409 956.4 409.588 959.088 410.764C961.832 411.94 964.156 413.564 966.06 415.636C967.964 417.708 969.42 420.088 970.428 422.776C971.436 425.408 971.94 428.264 971.94 431.344C971.94 432.128 971.884 432.94 971.772 433.78C971.716 434.62 971.576 435.348 971.352 435.964H936.072V427.564H965.136L959.928 431.512C960.432 428.936 960.292 426.64 959.508 424.624C958.78 422.608 957.548 421.012 955.812 419.836C954.132 418.66 952.088 418.072 949.68 418.072C947.384 418.072 945.34 418.66 943.548 419.836C941.756 420.956 940.384 422.636 939.432 424.876C938.536 427.06 938.2 429.72 938.424 432.856C938.2 435.656 938.564 438.148 939.516 440.332C940.524 442.46 941.98 444.112 943.884 445.288C945.844 446.464 948.084 447.052 950.604 447.052C953.124 447.052 955.252 446.52 956.988 445.456C958.78 444.392 960.18 442.964 961.188 441.172L970.092 445.54C969.196 447.724 967.796 449.656 965.892 451.336C963.988 453.016 961.72 454.332 959.088 455.284C956.512 456.236 953.656 456.712 950.52 456.712Z" fill="white"/>
<path d="M975.345 455.704L991.305 432.772L975.261 410.008H988.197L1000.71 428.488H994.917L1007.43 410.008H1020.29L1004.33 432.772L1020.2 455.704H1007.35L995.001 437.308H1000.63L988.281 455.704H975.345Z" fill="white"/>
<path d="M1026.3 472.504V410.008H1036.63V419.08L1035.63 416.812C1037.19 414.348 1039.32 412.444 1042.01 411.1C1044.7 409.7 1047.81 409 1051.33 409C1055.65 409 1059.54 410.064 1063.01 412.192C1066.48 414.32 1069.23 417.176 1071.24 420.76C1073.31 424.344 1074.35 428.376 1074.35 432.856C1074.35 437.28 1073.34 441.312 1071.33 444.952C1069.31 448.592 1066.57 451.476 1063.09 453.604C1059.62 455.676 1055.67 456.712 1051.25 456.712C1047.95 456.712 1044.89 456.068 1042.09 454.78C1039.35 453.436 1037.17 451.532 1035.54 449.068L1037.31 446.884V472.504H1026.3ZM1049.99 446.632C1052.51 446.632 1054.75 446.044 1056.71 444.868C1058.67 443.692 1060.18 442.068 1061.25 439.996C1062.37 437.924 1062.93 435.544 1062.93 432.856C1062.93 430.168 1062.37 427.816 1061.25 425.8C1060.18 423.728 1058.67 422.104 1056.71 420.928C1054.75 419.696 1052.51 419.08 1049.99 419.08C1047.58 419.08 1045.4 419.668 1043.44 420.844C1041.53 422.02 1040.02 423.672 1038.9 425.8C1037.84 427.872 1037.31 430.224 1037.31 432.856C1037.31 435.544 1037.84 437.924 1038.9 439.996C1040.02 442.068 1041.53 443.692 1043.44 444.868C1045.4 446.044 1047.58 446.632 1049.99 446.632Z" fill="white"/>
<path d="M1082.74 455.704V410.008H1093.07V420.172L1092.23 418.66C1093.29 415.244 1094.95 412.864 1097.19 411.52C1099.48 410.176 1102.23 409.504 1105.42 409.504H1108.11V419.248H1104.16C1101.02 419.248 1098.5 420.228 1096.6 422.188C1094.69 424.092 1093.74 426.78 1093.74 430.252V455.704H1082.74Z" fill="white"/>
<path d="M1119.7 474.268C1118.47 474.268 1117.26 474.156 1116.09 473.932C1114.91 473.764 1113.85 473.456 1112.9 473.008V463.768C1113.62 463.936 1114.49 464.104 1115.5 464.272C1116.56 464.44 1117.54 464.524 1118.44 464.524C1120.96 464.524 1122.78 463.936 1123.9 462.76C1125.08 461.584 1126.11 460.044 1127.01 458.14L1130.03 451.084L1129.86 460.324L1109.96 410.008H1121.8L1135.74 447.136H1131.54L1145.4 410.008H1157.33L1137.42 460.324C1136.25 463.292 1134.82 465.812 1133.14 467.884C1131.46 469.956 1129.5 471.524 1127.26 472.588C1125.08 473.708 1122.56 474.268 1119.7 474.268Z" fill="white"/>
<defs>
<filter id="filter0_d_284_9646" x="294.91" y="271.004" width="1728.3" height="821.013" filterUnits="userSpaceOnUse" color-interpolation-filters="sRGB">
<feFlood flood-opacity="0" result="BackgroundImageFix"/>
<feColorMatrix in="SourceAlpha" type="matrix" values="0 0 0 0 0 0 0 0 0 0 0 0 0 0 0 0 0 0 127 0" result="hardAlpha"/>
<feOffset dy="1.19365"/>
<feGaussianBlur stdDeviation="2.38731"/>
<feComposite in2="hardAlpha" operator="out"/>
<feColorMatrix type="matrix" values="0 0 0 0 0 0 0 0 0 0 0 0 0 0 0 0 0 0 0.05 0"/>
<feBlend mode="normal" in2="BackgroundImageFix" result="effect1_dropShadow_284_9646"/>
<feBlend mode="normal" in="SourceGraphic" in2="effect1_dropShadow_284_9646" result="shape"/>
</filter>
<radialGradient id="paint0_radial_284_9646" cx="0" cy="0" r="1" gradientUnits="userSpaceOnUse" gradientTransform="translate(960.629 192.699) rotate(90) scale(814.169 686.537)">
<stop stop-color="#D9D9D9"/>
<stop offset="1" stop-color="#D9D9D9" stop-opacity="0"/>
</radialGradient>
</defs>
</svg>
